<svg version="1.1" id="Layer_1" xmlns="http://www.w3.org/2000/svg" xmlns:xlink="http://www.w3.org/1999/xlink" x="0px" y="0px"
	 width="100%" viewBox="0 0 434 434" enable-background="new 0 0 434 434" xml:space="preserve">
<path fill="#FFFFFF" opacity="1.000000" stroke="none" 
	d="
M230.000000,435.000000 
	C153.333344,435.000000 77.166687,435.000000 1.000021,435.000000 
	C1.000014,290.333374 1.000014,145.666718 1.000007,1.000059 
	C145.666626,1.000040 290.333252,1.000040 434.999908,1.000020 
	C434.999939,145.666611 434.999939,290.333221 434.999969,434.999908 
	C366.833344,435.000000 298.666656,435.000000 230.000000,435.000000 
M284.992889,103.988670 
	C284.992889,103.988670 284.907776,103.935654 285.427887,103.799744 
	C285.611572,103.504593 285.795258,103.209450 286.177216,102.694801 
	C286.177216,102.694801 286.468750,102.644844 287.268311,102.856552 
	C289.724915,101.387253 292.426880,100.206863 294.579041,98.379059 
	C297.594269,95.818222 300.200104,92.775352 303.002350,90.658768 
	C303.672699,91.220833 304.309418,92.208740 305.019745,92.264915 
	C307.129211,92.431732 309.431152,91.694229 311.362518,92.281448 
	C316.104187,93.723099 319.328613,92.159004 319.905975,87.243340 
	C320.462097,82.508591 320.637787,77.729156 320.981384,72.175385 
	C320.136108,67.840271 314.617981,65.781639 310.773926,67.812263 
	C307.302216,69.646187 303.486847,71.117615 299.649811,71.907463 
	C293.156555,73.244095 286.451691,73.571190 279.977325,74.975266 
	C274.466156,76.170464 269.253510,78.778458 263.733246,79.887840 
	C252.831360,82.078735 242.044098,84.366684 232.141541,89.752014 
	C230.496246,90.646782 228.268219,91.029800 226.391296,90.840019 
	C219.019882,90.094635 219.032043,89.974434 216.536423,97.089798 
	C216.228165,97.235641 215.904022,97.295761 214.733292,97.107040 
	C212.637207,97.254349 210.436615,97.049530 208.470032,97.633163 
	C205.661224,98.466743 201.796570,98.836441 202.853500,104.056076 
	C196.061615,108.844841 189.269745,113.633606 181.921661,118.677963 
	C180.817780,119.484344 179.713898,120.290726 177.976044,121.285622 
	C177.312668,121.848579 176.649277,122.411545 175.388397,123.070213 
	C174.897202,123.685509 174.406006,124.300804 173.342972,125.232162 
	C171.983154,126.905098 170.623322,128.578033 168.749634,130.587738 
	C167.980087,131.541489 167.210541,132.495224 165.900528,133.827194 
	C160.004105,140.569794 154.113327,147.317337 148.209503,154.053452 
	C143.312134,159.641251 137.833466,164.877472 136.396347,173.486099 
	C136.318420,174.035629 136.240479,174.585175 135.753815,175.694382 
	C133.805588,181.411835 131.857346,187.129303 129.381439,193.481918 
	C124.922386,205.654572 120.463326,217.827225 115.363655,229.810791 
	C114.916954,230.608459 114.065804,231.418030 114.088898,232.201843 
	C114.244034,237.468933 113.806290,242.604736 114.599205,248.044449 
	C116.661613,262.193298 116.605362,276.643311 117.689796,290.950745 
	C117.848648,293.046722 119.620514,295.020447 120.912651,297.674072 
	C120.909515,298.123108 120.906380,298.572113 120.355415,299.634033 
	C120.246071,302.437653 120.359802,305.271698 119.982796,308.038849 
	C119.087280,314.611725 122.227074,320.288879 126.122688,324.301941 
	C129.165649,327.436615 134.042831,328.566742 132.453384,335.099670 
	C140.112915,330.855835 139.160126,338.974243 142.554001,340.751404 
	C146.499817,342.817627 150.575134,344.924194 148.191666,350.718384 
	C150.830063,350.154816 152.791214,349.735901 154.892792,350.030273 
	C156.526001,352.335846 157.748703,356.065948 159.870148,356.677307 
	C166.002487,358.444489 172.470993,359.182739 178.855133,359.903320 
	C186.700363,360.788818 194.586197,361.269196 201.745972,365.107849 
	C202.294388,365.401886 202.966476,365.518219 203.596252,365.599426 
	C211.058701,366.561676 218.506638,367.688293 225.994324,368.386169 
	C231.637283,368.912109 237.332153,368.881165 243.652328,369.055176 
	C244.080353,369.115936 244.508392,369.176697 245.318008,369.773651 
	C247.257736,369.588470 249.233490,369.572021 251.126495,369.167999 
	C252.830170,368.804321 254.443100,368.015564 256.714050,367.189484 
	C257.222198,365.763824 258.084259,363.345337 259.162415,360.244446 
	C260.433563,359.685455 261.704712,359.126495 263.043121,359.288086 
	C263.427612,359.661285 263.812073,360.034454 264.196564,360.407654 
	C264.455597,359.269012 264.714630,358.130341 265.618347,356.695953 
	C269.621704,354.323730 273.962006,352.367676 277.540375,349.470520 
	C281.713593,346.091827 284.971222,341.596771 289.072906,338.111877 
	C296.108276,332.134460 303.479980,326.551849 310.746216,320.848969 
	C311.356018,320.370392 312.235443,320.235382 313.063110,320.655823 
	C313.354675,321.232483 313.541138,321.902588 313.956238,322.369415 
	C315.643494,324.266968 317.275482,326.228302 319.994629,323.547607 
	C322.202637,321.370850 322.739777,319.607635 319.759552,317.639648 
	C319.161682,317.244904 319.211639,315.869080 319.312347,314.320892 
	C326.941284,312.261902 328.737244,307.042633 328.074646,299.703033 
	C327.274475,290.839539 327.299225,281.901550 327.741211,272.840485 
	C329.716858,269.121063 330.424835,265.619751 326.030426,262.330963 
	C326.035370,261.889191 326.040344,261.447388 326.804626,260.827942 
	C327.176056,260.332275 327.819519,259.866486 327.877686,259.336456 
	C328.608276,252.681305 329.365662,246.025391 329.877472,239.351364 
	C330.156219,235.716171 328.178284,234.762009 324.336182,235.728043 
	C321.896576,233.814758 319.456940,231.901474 317.000000,230.000000 
	C317.000000,230.000000 317.013184,229.983444 317.039001,229.225418 
	C316.635193,226.864655 316.073730,224.662125 312.963623,224.989731 
	C312.963623,224.989731 312.903687,225.096100 312.989319,224.354004 
	C311.650726,222.906082 310.312164,221.458145 308.766937,219.758331 
	C308.766937,219.758331 308.709503,219.437622 308.883087,218.614075 
	C308.417267,217.105515 308.356964,215.256866 307.421875,214.141861 
	C299.478149,204.669617 291.372955,195.332825 283.321136,185.951172 
	C280.184723,182.296783 278.362762,177.264938 272.725342,175.778198 
	C272.725342,175.778198 272.683502,175.458801 272.843170,174.695938 
	C271.863098,172.806686 270.857574,170.930115 269.909088,169.025131 
	C268.582550,166.360779 267.298553,163.675247 266.810638,160.971268 
	C267.540192,159.755341 268.842865,158.565414 268.899445,157.318939 
	C269.136444,152.096954 269.064362,146.856659 268.952393,141.626328 
	C268.926239,140.405746 268.300171,139.197998 268.050140,137.187210 
	C268.396362,133.045273 268.391693,128.831390 269.220581,124.788406 
	C269.716461,122.369682 270.951904,119.273552 272.846802,118.140167 
	C277.021729,115.642998 279.241119,112.100632 280.998474,107.986610 
	C280.998474,107.986610 280.880798,107.898781 281.590088,107.923721 
	C282.373047,106.923958 283.156006,105.924194 284.005951,104.980743 
	C284.005951,104.980743 283.925232,104.947815 284.441406,104.811592 
	C284.605530,104.510277 284.769684,104.208954 284.992889,103.988670 
z"/>
<path fill="#0440A3" opacity="1.000000" stroke="none" 
	d="
M116.004257,229.999878 
	C120.463326,217.827225 124.922386,205.654572 129.918930,193.050629 
	C132.358459,186.791122 134.260498,180.962921 136.162537,175.134705 
	C136.240479,174.585175 136.318420,174.035629 136.940887,173.043213 
	C139.045044,170.157425 138.520355,166.008209 143.265900,166.096588 
	C146.126846,167.699844 148.725327,169.046204 151.218079,170.565979 
	C158.839157,175.212387 166.511581,179.785263 173.972046,184.679398 
	C177.099945,186.731323 178.847260,186.153122 180.035767,182.903152 
	C182.349854,176.575226 184.723969,170.264435 186.833099,163.867371 
	C190.988556,151.263824 194.980133,138.606277 199.266296,126.004532 
	C199.493103,126.038017 199.945984,126.109779 199.957336,126.488052 
	C200.379669,127.858459 200.505585,129.313736 201.246536,129.769806 
	C207.422760,133.571457 213.683716,137.238785 219.973724,140.851547 
	C231.994690,147.755951 243.988098,154.714066 256.152496,161.357758 
	C258.334930,162.549713 260.598541,165.756851 263.891266,163.413757 
	C263.997345,164.874619 264.043274,165.939789 263.658508,167.005524 
	C257.667938,168.345215 252.113525,169.707520 246.547226,171.019226 
	C226.768097,175.680130 206.975327,180.283981 187.218369,185.036804 
	C185.280884,185.502899 183.554077,186.844742 181.604187,187.792084 
	C181.478882,187.804077 181.228683,187.831757 180.835480,187.793396 
	C179.269043,188.155228 178.095810,188.555405 176.581116,189.009247 
	C163.615143,198.105759 150.960693,207.107300 138.377609,216.207489 
	C131.180496,221.412491 124.099434,226.777954 116.927200,231.776398 
	C116.593613,230.987717 116.298935,230.493805 116.004257,229.999878 
z"/>
<path fill="#74FDFD" opacity="1.000000" stroke="none" 
	d="
M262.975891,358.567535 
	C261.704712,359.126495 260.433563,359.685455 258.688965,360.600891 
	C255.568054,362.351776 252.920639,363.746155 250.176453,364.757690 
	C253.095551,356.549316 256.149475,348.738159 259.114258,340.893341 
	C261.196777,335.382965 263.157928,329.826691 265.499329,324.150879 
	C268.206818,318.337463 270.588226,312.664093 273.020874,306.649536 
	C273.473175,305.246613 273.874207,304.184845 274.503845,302.874908 
	C276.812592,297.749512 278.892731,292.872314 281.022949,287.634857 
	C281.453339,285.882446 281.833710,284.490265 282.443848,282.882996 
	C282.843597,281.861084 283.013611,281.054230 283.526276,280.146576 
	C285.947845,275.049805 288.026733,270.053802 290.252716,264.740051 
	C290.980377,262.678589 291.560944,260.934845 292.476562,259.090149 
	C294.176636,255.652328 295.541626,252.315475 296.948242,248.741211 
	C296.989899,248.503815 297.026306,248.023163 297.408325,248.012283 
	C298.911682,248.980545 300.511993,249.739883 301.078278,250.973770 
	C305.422089,260.438782 309.685730,269.945099 313.733978,279.539948 
	C317.321777,288.043488 320.600800,296.677307 324.061218,305.603577 
	C323.817169,306.705841 323.747040,307.723511 323.205688,308.170349 
	C316.141571,314.001434 309.117523,319.889893 301.871002,325.489105 
	C291.609985,333.417450 281.075684,340.994019 270.874786,348.997009 
	C268.135040,351.146393 266.180664,354.296783 263.762146,357.193054 
	C263.431000,357.788116 263.203430,358.177826 262.975891,358.567535 
z"/>
<path fill="#0599F9" opacity="1.000000" stroke="none" 
	d="
M116.966110,232.071167 
	C124.099434,226.777954 131.180496,221.412491 138.377609,216.207489 
	C150.960693,207.107300 163.615143,198.105759 176.599152,189.391800 
	C175.449921,193.518921 174.029465,197.355072 172.416214,201.108337 
	C167.287170,213.041260 162.126785,224.961105 156.900925,236.851898 
	C152.326813,247.259750 147.647934,257.621521 142.661469,268.037292 
	C135.511185,272.079346 135.103424,279.428070 133.082626,285.905670 
	C132.910797,286.456451 133.685959,287.302612 133.975937,288.389160 
	C131.622803,294.496429 129.467194,300.294525 126.937599,305.924591 
	C125.808540,308.437531 123.927650,310.612640 122.295097,312.494751 
	C121.769218,307.705994 121.336227,303.363556 120.903244,299.021149 
	C120.906380,298.572113 120.909515,298.123108 120.861969,296.919037 
	C119.312088,277.946655 117.746719,259.734283 116.377502,241.507156 
	C116.143661,238.394135 116.748642,235.218079 116.966110,232.071167 
z"/>
<path fill="#0EDEF7" opacity="1.000000" stroke="none" 
	d="
M286.468750,102.644852 
	C286.468750,102.644844 286.177216,102.694801 285.806335,102.854950 
	C285.259521,103.321953 285.083649,103.628799 284.907776,103.935654 
	C284.907776,103.935654 284.992889,103.988670 284.706665,104.018799 
	C284.255371,104.348557 284.090302,104.648193 283.925232,104.947815 
	C283.925232,104.947815 284.005951,104.980743 283.643738,104.988007 
	C282.481293,105.963112 281.681030,106.930946 280.880798,107.898781 
	C280.880798,107.898781 280.998474,107.986610 280.612762,107.985641 
	C275.825348,111.907768 271.423645,115.830864 266.812439,119.494049 
	C264.396729,114.292328 262.173828,109.357887 259.988495,104.406845 
	C257.097412,97.856789 254.235718,91.293755 251.654938,84.546600 
	C253.575409,84.038490 255.206818,83.741287 256.828583,83.398384 
	C276.102570,79.323059 295.369995,75.216057 314.661896,71.227226 
	C315.730591,71.006264 316.998749,71.750061 317.921204,72.106094 
	C317.519958,72.463486 317.371582,72.759575 317.072632,73.164070 
	C316.922089,73.272476 316.789673,73.619072 316.478516,73.719513 
	C315.177399,74.916573 314.187469,76.013199 313.146851,77.094521 
	C313.096130,77.079216 313.100983,77.185074 312.779877,77.223343 
	C311.321228,78.516121 310.183716,79.770638 309.024414,81.011322 
	C309.002655,80.997490 309.023346,81.044640 308.704529,81.107826 
	C307.243011,82.431122 306.100342,83.691238 304.978210,84.975067 
	C304.998779,84.998779 304.958954,84.953400 304.701752,85.017891 
	C304.275818,85.374191 304.107056,85.666000 303.972656,85.968704 
	C304.006989,85.979599 303.947449,85.937294 303.612762,85.990295 
	C297.674957,91.577156 292.071869,97.111000 286.468750,102.644852 
z"/>
<path fill="#20EBF4" opacity="1.000000" stroke="none" 
	d="
M324.016113,305.253632 
	C320.600800,296.677307 317.321777,288.043488 313.733978,279.539948 
	C309.685730,269.945099 305.422089,260.438782 301.078278,250.973770 
	C300.511993,249.739883 298.911682,248.980545 297.389832,247.638535 
	C296.982910,246.528183 296.976501,245.780716 296.983643,244.780121 
	C297.003021,244.358368 297.008881,244.189758 297.268494,243.825989 
	C297.629181,242.806686 297.736053,241.982529 298.234436,241.123642 
	C299.378387,241.568207 300.525787,241.877869 300.816833,242.555389 
	C302.284149,245.971191 303.519623,249.486206 304.852722,252.960144 
	C307.223419,259.137848 309.591492,265.316650 311.995361,271.481445 
	C312.474792,272.710938 312.798309,274.276947 313.728210,275.006256 
	C317.301178,277.808472 318.119629,281.765076 319.055939,285.815491 
	C319.340698,287.047211 320.557800,288.063446 321.347870,289.178375 
	C321.773926,289.013947 322.199951,288.849548 322.626007,288.685120 
	C322.748749,287.283875 323.009613,285.878937 322.972351,284.481964 
	C322.684540,273.704681 321.549011,262.875824 322.269318,252.170120 
	C322.814270,244.070023 316.658569,239.107376 315.290314,232.112747 
	C315.110535,231.193420 312.788208,230.835587 311.724457,229.911270 
	C310.353485,228.720032 309.098419,227.323349 308.079071,225.821320 
	C307.195282,224.519012 306.941528,222.773453 306.008301,221.523071 
	C301.691284,215.738968 297.432678,209.891357 292.772186,204.389175 
	C288.053741,198.818619 282.888153,193.626785 277.918427,188.269058 
	C279.150818,194.274338 281.592285,199.686386 283.707428,205.223083 
	C285.325348,209.458130 286.530640,213.850784 287.652039,217.938751 
	C286.598969,216.060989 285.793091,214.427109 285.031128,212.772995 
	C281.371429,204.828613 277.723663,196.878754 274.082336,188.958984 
	C274.092987,188.987137 274.103088,188.927032 274.092712,188.586044 
	C273.419250,187.135101 272.756165,186.025146 272.106323,184.933105 
	C272.119537,184.951035 272.119843,184.903976 272.097229,184.527740 
	C271.118164,180.710983 270.161682,177.270462 269.533997,173.840027 
	C270.803009,174.386322 271.743256,174.922562 272.683502,175.458801 
	C272.683502,175.458801 272.725342,175.778198 272.855530,176.253448 
	C279.899261,185.231308 286.739868,193.794632 293.751373,202.215652 
	C298.615601,208.057739 303.715118,213.703918 308.709503,219.437622 
	C308.709503,219.437622 308.766937,219.758331 308.875488,220.221588 
	C310.290588,222.155258 311.597137,223.625687 312.903687,225.096100 
	C312.903687,225.096100 312.963623,224.989731 312.961365,225.369720 
	C314.310455,227.160965 315.661804,228.572205 317.013184,229.983444 
	C317.013184,229.983444 317.000000,230.000000 317.021454,230.341919 
	C321.906616,236.121765 325.087616,241.969086 324.250275,249.798615 
	C323.718475,254.771011 324.746979,259.910278 325.025116,265.306946 
	C325.022095,266.083038 325.069763,266.526855 325.014099,267.348511 
	C324.994965,268.496979 325.079163,269.267670 325.104553,270.356293 
	C325.093475,271.100189 325.141174,271.526184 325.087708,272.414124 
	C325.257385,281.640259 325.647949,290.403595 325.709229,299.169220 
	C325.723358,301.193298 324.610413,303.225281 324.016113,305.253632 
z"/>
<path fill="#0F78C5" opacity="1.000000" stroke="none" 
	d="
M199.945984,126.109787 
	C199.945984,126.109779 199.493103,126.038017 199.289398,125.642525 
	C201.411743,118.812416 203.737823,112.377808 206.133118,105.531876 
	C206.082611,104.316803 205.962875,103.513054 205.881409,102.752563 
	C205.919647,102.795822 205.889862,102.907402 206.199127,102.941467 
	C206.664536,102.622894 206.820648,102.270256 206.985565,101.951660 
	C206.994354,101.985687 206.924103,101.988304 207.196381,101.933571 
	C207.644180,101.561729 207.819687,101.244621 208.218475,100.660576 
	C210.815826,99.352478 213.189911,98.311317 215.563980,97.270157 
	C215.904022,97.295761 216.228165,97.235641 217.132172,96.994537 
	C227.135361,93.587799 236.542801,90.276329 245.929993,87.313095 
	C239.594849,93.772263 233.457703,100.082420 226.906403,105.928467 
	C222.039352,110.271576 216.685501,114.079956 211.453232,117.999374 
	C207.698990,120.811646 203.787384,123.413857 199.945984,126.109787 
z"/>
<path fill="#CCFCFD" opacity="1.000000" stroke="none" 
	d="
M324.061218,305.603577 
	C324.610413,303.225281 325.723358,301.193298 325.709229,299.169220 
	C325.647949,290.403595 325.257385,281.640259 325.360352,272.441589 
	C326.145081,272.336639 326.556030,272.666229 326.966949,272.995819 
	C327.299225,281.901550 327.274475,290.839539 328.074646,299.703033 
	C328.737244,307.042633 326.941284,312.261902 318.846344,314.787659 
	C316.583435,316.816528 314.786530,318.378632 312.989624,319.940765 
	C312.235443,320.235382 311.356018,320.370392 310.746216,320.848969 
	C303.479980,326.551849 296.108276,332.134460 289.072906,338.111877 
	C284.971222,341.596771 281.713593,346.091827 277.540375,349.470520 
	C273.962006,352.367676 269.621704,354.323730 265.019165,356.845276 
	C264.235229,356.992310 264.050476,356.989990 263.865753,356.987671 
	C266.180664,354.296783 268.135040,351.146393 270.874786,348.997009 
	C281.075684,340.994019 291.609985,333.417450 301.871002,325.489105 
	C309.117523,319.889893 316.141571,314.001434 323.205688,308.170349 
	C323.747040,307.723511 323.817169,306.705841 324.061218,305.603577 
z"/>
<path fill="#DCFAFB" opacity="1.000000" stroke="none" 
	d="
M245.950226,86.964859 
	C236.542801,90.276329 227.135361,93.587799 217.352402,96.877731 
	C219.032043,89.974434 219.019882,90.094635 226.391296,90.840019 
	C228.268219,91.029800 230.496246,90.646782 232.141541,89.752014 
	C242.044098,84.366684 252.831360,82.078735 263.733246,79.887840 
	C269.253510,78.778458 274.466156,76.170464 279.977325,74.975266 
	C286.451691,73.571190 293.156555,73.244095 299.649811,71.907463 
	C303.486847,71.117615 307.302216,69.646187 310.773926,67.812263 
	C314.617981,65.781639 320.136108,67.840271 320.653534,72.581543 
	C319.888458,72.996086 319.451263,73.004471 318.928528,72.807396 
	C318.692108,72.329643 318.469116,72.143929 318.174072,72.044800 
	C316.998749,71.750061 315.730591,71.006264 314.661896,71.227226 
	C295.369995,75.216057 276.102570,79.323059 256.828583,83.398384 
	C255.206818,83.741287 253.575409,84.038490 251.273743,84.618210 
	C249.049393,85.574623 247.499817,86.269745 245.950226,86.964859 
z"/>
<path fill="#CFFAFD" opacity="1.000000" stroke="none" 
	d="
M243.003906,369.098083 
	C237.332153,368.881165 231.637283,368.912109 225.994324,368.386169 
	C218.506638,367.688293 211.058701,366.561676 203.596252,365.599426 
	C202.966476,365.518219 202.294388,365.401886 201.745972,365.107849 
	C194.586197,361.269196 186.700363,360.788818 178.855133,359.903320 
	C172.470993,359.182739 166.002487,358.444489 159.870148,356.677307 
	C157.748703,356.065948 156.526001,352.335846 154.876923,349.596588 
	C154.861053,349.162903 154.981781,349.023773 155.252777,349.017365 
	C155.702728,348.986237 155.881683,348.961517 156.153473,349.042664 
	C156.246307,349.148560 156.527161,349.169281 156.659698,349.438324 
	C157.138718,349.871765 157.485184,350.036163 157.796967,350.196899 
	C157.762283,350.193207 157.755753,350.262634 157.790756,350.568787 
	C158.440338,351.346313 159.054916,351.817688 159.694183,352.295227 
	C159.718872,352.301422 159.703751,352.252869 159.742615,352.542908 
	C160.220184,353.168243 160.658890,353.503479 161.415115,354.041687 
	C163.459549,354.513977 165.186493,354.783325 167.257751,355.178772 
	C168.087769,355.288940 168.573441,355.272949 169.184875,355.317261 
	C169.310638,355.377533 169.528778,355.203705 169.842346,355.474945 
	C174.773300,356.529510 179.390686,357.312836 184.178894,358.170807 
	C184.349716,358.245453 184.715363,358.172638 185.039459,358.419495 
	C189.189529,359.184448 193.015488,359.702576 196.865585,360.215210 
	C196.889709,360.209717 196.923401,360.173462 197.181717,360.448822 
	C198.966415,360.851196 200.492798,360.978210 202.186310,361.166412 
	C202.353424,361.227570 202.700043,361.146851 203.021988,361.404907 
	C207.262253,362.137848 211.180557,362.612701 215.226379,363.153900 
	C215.353867,363.220245 215.622986,363.119232 215.790527,363.339935 
	C216.308838,363.600922 216.659607,363.641205 217.354996,363.805969 
	C218.666748,364.009094 219.633911,364.087708 220.895691,364.428101 
	C222.471924,364.795319 223.753525,364.900818 225.326416,365.100739 
	C226.023926,365.222290 226.430099,365.249420 227.112000,365.513733 
	C228.579453,365.864471 229.771179,365.978058 231.241135,366.179871 
	C231.906052,366.264130 232.292740,366.260101 232.984589,366.508514 
	C234.866409,366.906433 236.443069,367.051910 238.162613,367.274292 
	C238.305511,367.351196 238.607986,367.233551 238.891647,367.489502 
	C240.414200,367.879791 241.653091,368.014191 242.898239,368.148773 
	C242.904495,368.148987 242.864365,368.169525 242.886047,368.403625 
	C242.907715,368.637756 243.003906,369.098083 243.003906,369.098083 
z"/>
<path fill="#F7FEFA" opacity="1.000000" stroke="none" 
	d="
M319.014038,73.012856 
	C319.451263,73.004471 319.888458,72.996086 320.653137,72.978531 
	C320.637787,77.729156 320.462097,82.508591 319.905975,87.243340 
	C319.328613,92.159004 316.104187,93.723099 311.362518,92.281448 
	C309.431152,91.694229 307.129211,92.431732 305.019745,92.264915 
	C304.309418,92.208740 303.672699,91.220833 303.025665,89.954971 
	C303.348480,88.146553 303.647980,87.041924 303.947449,85.937294 
	C303.947449,85.937294 304.006989,85.979599 304.221191,85.895454 
	C304.609924,85.525345 304.784454,85.239380 304.958984,84.953407 
	C304.958954,84.953400 304.998779,84.998779 305.355774,84.998459 
	C306.816315,83.680313 307.919830,82.362473 309.023346,81.044632 
	C309.023346,81.044640 309.002655,80.997490 309.391602,81.016212 
	C310.887360,79.751656 311.994171,78.468369 313.101013,77.185081 
	C313.100983,77.185074 313.096130,77.079216 313.511993,77.078018 
	C314.881775,75.924240 315.835724,74.771652 316.789673,73.619064 
	C316.789673,73.619072 316.922089,73.272476 317.370331,73.175072 
	C318.217072,73.056061 318.615540,73.034462 319.014038,73.012856 
z"/>
<path fill="#CFFAFD" opacity="1.000000" stroke="none" 
	d="
M120.629333,299.327576 
	C121.336227,303.363556 121.769218,307.705994 122.207977,312.821838 
	C123.144203,315.029388 124.074654,316.463470 125.007050,317.947540 
	C125.008995,317.997528 125.108948,318.001862 125.202271,318.280426 
	C125.811417,318.777740 126.327240,318.996490 126.872238,319.154663 
	C126.901421,319.094055 126.786148,319.163361 126.793663,319.465332 
	C127.230659,320.125580 127.660133,320.483795 128.213654,320.955170 
	C128.337692,321.068329 128.664429,321.145874 128.784973,321.434479 
	C129.543167,322.205780 130.180817,322.688477 130.903473,323.087982 
	C130.988464,323.004822 130.829620,323.181519 130.906677,323.481323 
	C131.592606,324.333923 132.201477,324.886719 132.965164,325.711670 
	C134.463394,327.314178 135.806793,328.644501 137.216919,330.272095 
	C137.801300,330.870331 138.318970,331.171295 138.971588,331.717468 
	C139.932388,332.706299 140.758209,333.449860 141.719696,334.463257 
	C142.177582,334.967377 142.499802,335.201630 142.926254,335.669342 
	C143.397598,336.254059 143.764709,336.605347 144.175110,337.198883 
	C144.407501,337.759705 144.686447,337.901428 145.159607,337.986938 
	C145.263931,338.107574 145.571182,338.193451 145.674744,338.505249 
	C146.446686,339.283325 147.115067,339.749603 147.863983,340.201965 
	C147.944534,340.188049 147.782578,340.165710 147.800491,340.486572 
	C148.569687,341.505554 149.320984,342.203674 150.222336,343.094238 
	C150.588867,343.531738 150.830353,343.748993 151.151093,344.230774 
	C151.791260,345.021088 152.377243,345.519073 153.062286,346.244751 
	C153.362045,346.760681 153.635422,346.934662 154.061615,347.268799 
	C154.421753,348.036713 154.701767,348.530243 154.981781,349.023773 
	C154.981781,349.023773 154.861053,349.162903 154.806702,349.239929 
	C152.791214,349.735901 150.830063,350.154816 148.191666,350.718384 
	C150.575134,344.924194 146.499817,342.817627 142.554001,340.751404 
	C139.160126,338.974243 140.112915,330.855835 132.453384,335.099670 
	C134.042831,328.566742 129.165649,327.436615 126.122688,324.301941 
	C122.227074,320.288879 119.087280,314.611725 119.982796,308.038849 
	C120.359802,305.271698 120.246071,302.437653 120.629333,299.327576 
z"/>
<path fill="#CFFAFD" opacity="1.000000" stroke="none" 
	d="
M116.927200,231.776398 
	C116.748642,235.218079 116.143661,238.394135 116.377502,241.507156 
	C117.746719,259.734283 119.312088,277.946655 120.728668,296.607361 
	C119.620514,295.020447 117.848648,293.046722 117.689796,290.950745 
	C116.605362,276.643311 116.661613,262.193298 114.599205,248.044449 
	C113.806290,242.604736 114.244034,237.468933 114.088898,232.201843 
	C114.065804,231.418030 114.916954,230.608459 115.683960,229.905334 
	C116.298935,230.493805 116.593613,230.987717 116.927200,231.776398 
z"/>
<path fill="#1E2C6A" opacity="1.000000" stroke="none" 
	d="
M142.955078,165.918976 
	C138.520355,166.008209 139.045044,170.157425 137.227203,172.736328 
	C137.833466,164.877472 143.312134,159.641251 148.209503,154.053452 
	C154.113327,147.317337 160.004105,140.569794 166.311951,133.781189 
	C166.723358,133.735168 167.015152,134.011734 166.997696,134.388947 
	C162.600723,140.423080 158.213745,146.074265 153.843979,151.738708 
	C150.203842,156.457367 146.583939,161.191635 142.955078,165.918976 
z"/>
<path fill="#CCFCFD" opacity="1.000000" stroke="none" 
	d="
M308.796295,219.025848 
	C303.715118,213.703918 298.615601,208.057739 293.751373,202.215652 
	C286.739868,193.794632 279.899261,185.231308 272.949829,176.384003 
	C278.362762,177.264938 280.184723,182.296783 283.321136,185.951172 
	C291.372955,195.332825 299.478149,204.669617 307.421875,214.141861 
	C308.356964,215.256866 308.417267,217.105515 308.796295,219.025848 
z"/>
<path fill="#CCFCFD" opacity="1.000000" stroke="none" 
	d="
M267.021973,119.753952 
	C271.423645,115.830864 275.825348,111.907768 280.562012,107.932495 
	C279.241119,112.100632 277.021729,115.642998 272.846802,118.140167 
	C270.951904,119.273552 269.716461,122.369682 269.220581,124.788406 
	C268.391693,128.831390 268.396362,133.045273 267.719940,137.882736 
	C267.254700,140.344849 267.247681,142.133255 266.951447,143.872391 
	C266.599121,145.940887 265.998322,147.967072 265.426178,149.589996 
	C265.905457,139.363602 266.463715,129.558777 267.021973,119.753952 
z"/>
<path fill="#CCFCFD" opacity="1.000000" stroke="none" 
	d="
M325.075806,264.974731 
	C324.746979,259.910278 323.718475,254.771011 324.250275,249.798615 
	C325.087616,241.969086 321.906616,236.121765 317.030121,230.335999 
	C319.456940,231.901474 321.896576,233.814758 324.661804,236.302994 
	C325.340057,244.920502 325.692657,252.963058 326.045288,261.005615 
	C326.040344,261.447388 326.035370,261.889191 326.005096,262.953979 
	C325.678436,264.042877 325.377136,264.508820 325.075806,264.974731 
z"/>
<path fill="#F7FFFD" opacity="1.000000" stroke="none" 
	d="
M326.424957,260.916779 
	C325.692657,252.963058 325.340057,244.920502 324.959747,236.459717 
	C328.178284,234.762009 330.156219,235.716171 329.877472,239.351364 
	C329.365662,246.025391 328.608276,252.681305 327.877686,259.336456 
	C327.819519,259.866486 327.176056,260.332275 326.424957,260.916779 
z"/>
<path fill="#192666" opacity="1.000000" stroke="none" 
	d="
M205.843155,102.709290 
	C205.962875,103.513054 206.082611,104.316803 205.787689,105.597084 
	C204.591797,107.137199 204.036285,108.684822 202.987167,109.174141 
	C199.765884,110.676582 196.355453,111.773514 192.709534,113.166130 
	C189.272110,115.207756 186.143692,117.111336 182.881821,118.865952 
	C182.748383,118.716995 182.477875,118.422371 182.477875,118.422363 
	C189.269745,113.633606 196.061615,108.844841 203.401764,103.700974 
	C204.581085,103.133675 205.212112,102.921478 205.843155,102.709290 
z"/>
<path fill="#CCFCFD" opacity="1.000000" stroke="none" 
	d="
M303.612762,85.990295 
	C303.647980,87.041924 303.348480,88.146553 303.015015,89.594940 
	C300.200104,92.775352 297.594269,95.818222 294.579041,98.379059 
	C292.426880,100.206863 289.724915,101.387253 286.868530,102.750702 
	C292.071869,97.111000 297.674957,91.577156 303.612762,85.990295 
z"/>
<path fill="#CCFCFD" opacity="1.000000" stroke="none" 
	d="
M272.763336,175.077362 
	C271.743256,174.922562 270.803009,174.386322 269.506439,173.857025 
	C269.150116,173.863983 269.174133,173.922440 269.197449,173.595352 
	C268.795502,172.817596 268.370239,172.366928 267.707001,171.730865 
	C266.633331,170.702438 265.797699,169.859406 265.048859,168.702637 
	C264.786865,167.927582 264.438049,167.466278 264.089233,167.004959 
	C264.043274,165.939789 263.997345,164.874619 263.960999,162.986115 
	C264.458252,159.104813 264.945923,156.046829 265.627167,153.331009 
	C265.879272,156.115036 265.937805,158.556915 265.996338,160.998779 
	C267.298553,163.675247 268.582550,166.360779 269.909088,169.025131 
	C270.857574,170.930115 271.863098,172.806686 272.763336,175.077362 
z"/>
<path fill="#F4FEFE" opacity="1.000000" stroke="none" 
	d="
M266.403503,160.985016 
	C265.937805,158.556915 265.879272,156.115036 265.572784,152.959137 
	C265.384949,151.500595 265.445068,150.756088 265.505188,150.011581 
	C265.998322,147.967072 266.599121,145.940887 266.951447,143.872391 
	C267.247681,142.133255 267.254700,140.344849 267.669922,138.281296 
	C268.300171,139.197998 268.926239,140.405746 268.952393,141.626328 
	C269.064362,146.856659 269.136444,152.096954 268.899445,157.318939 
	C268.842865,158.565414 267.540192,159.755341 266.403503,160.985016 
z"/>
<path fill="#F6FFFC" opacity="1.000000" stroke="none" 
	d="
M313.026367,320.298279 
	C314.786530,318.378632 316.583435,316.816528 318.671631,315.100037 
	C319.211639,315.869080 319.161682,317.244904 319.759552,317.639648 
	C322.739777,319.607635 322.202637,321.370850 319.994629,323.547607 
	C317.275482,326.228302 315.643494,324.266968 313.956238,322.369415 
	C313.541138,321.902588 313.354675,321.232483 313.026367,320.298279 
z"/>
<path fill="#CFFAFD" opacity="1.000000" stroke="none" 
	d="
M250.273209,365.140564 
	C252.920639,363.746155 255.568054,362.351776 258.580872,360.942108 
	C258.084259,363.345337 257.222198,365.763824 256.714050,367.189484 
	C254.443100,368.015564 252.830170,368.804321 251.126495,369.167999 
	C249.233490,369.572021 247.257736,369.588470 245.475525,369.407532 
	C246.419144,368.651245 247.205231,368.261078 248.210968,367.787628 
	C248.674438,367.501007 248.877808,367.263123 249.300446,366.885803 
	C249.769363,366.289001 249.978546,365.796967 250.201080,365.259674 
	C250.214432,365.214417 250.273209,365.140564 250.273209,365.140564 
z"/>
<path fill="#122770" opacity="1.000000" stroke="none" 
	d="
M175.985901,122.974503 
	C176.649277,122.411545 177.312668,121.848579 178.652740,121.157883 
	C180.542480,121.016937 181.755554,121.003731 183.028076,121.328995 
	C184.029251,122.849266 184.970947,124.031059 186.832596,126.367340 
	C184.187927,126.367340 182.768829,126.540283 181.411346,126.324921 
	C179.586288,126.035362 177.808746,125.446121 176.005249,124.650330 
	C175.995071,123.868271 175.990479,123.421379 175.985901,122.974503 
z"/>
<path fill="#DCFAFB" opacity="1.000000" stroke="none" 
	d="
M205.881409,102.752556 
	C205.212112,102.921478 204.581085,103.133675 203.634125,103.468735 
	C201.796570,98.836441 205.661224,98.466743 208.470032,97.633163 
	C210.436615,97.049530 212.637207,97.254349 215.148636,97.188599 
	C213.189911,98.311317 210.815826,99.352478 207.944168,100.711960 
	C207.272415,101.349617 207.098251,101.668961 206.924103,101.988304 
	C206.924103,101.988304 206.994354,101.985687 206.686752,102.010147 
	C206.216064,102.325539 206.052963,102.616470 205.889862,102.907402 
	C205.889862,102.907402 205.919647,102.795822 205.881409,102.752556 
z"/>
<path fill="#1E2C6A" opacity="1.000000" stroke="none" 
	d="
M135.958191,175.414551 
	C134.260498,180.962921 132.358459,186.791122 130.182770,192.733032 
	C131.857346,187.129303 133.805588,181.411835 135.958191,175.414551 
z"/>
<path fill="#F7FFFD" opacity="1.000000" stroke="none" 
	d="
M325.025116,265.306946 
	C325.377136,264.508820 325.678436,264.042877 326.013336,263.285248 
	C330.424835,265.619751 329.716858,269.121063 327.354065,272.918152 
	C326.556030,272.666229 326.145081,272.336639 325.461517,271.979614 
	C325.141174,271.526184 325.093475,271.100189 325.426331,270.301208 
	C325.577087,268.942352 325.347260,267.956512 325.117432,266.970703 
	C325.069763,266.526855 325.022095,266.083038 325.025116,265.306946 
z"/>
<path fill="#1E2C6A" opacity="1.000000" stroke="none" 
	d="
M169.263489,130.250961 
	C170.623322,128.578033 171.983154,126.905098 173.686035,125.130295 
	C174.029099,125.028427 174.143463,125.140671 174.093674,125.516190 
	C174.017090,126.903694 173.990295,127.915665 173.666260,128.962418 
	C172.897064,129.323654 172.425095,129.650131 171.614197,129.983505 
	C170.608200,130.083878 169.941116,130.177338 169.265305,130.267105 
	C169.256561,130.263397 169.263489,130.250961 169.263489,130.250961 
z"/>
<path fill="#CCFCFD" opacity="1.000000" stroke="none" 
	d="
M317.026093,229.604431 
	C315.661804,228.572205 314.310455,227.160965 312.924561,225.420486 
	C316.073730,224.662125 316.635193,226.864655 317.026093,229.604431 
z"/>
<path fill="#CCFCFD" opacity="1.000000" stroke="none" 
	d="
M312.946503,224.725067 
	C311.597137,223.625687 310.290588,222.155258 308.978821,220.347534 
	C310.312164,221.458145 311.650726,222.906082 312.946503,224.725067 
z"/>
<path fill="#192666" opacity="1.000000" stroke="none" 
	d="
M182.968613,120.990524 
	C181.755554,121.003731 180.542480,121.016937 178.969727,121.063622 
	C179.713898,120.290726 180.817780,119.484344 182.199768,118.550171 
	C182.477875,118.422371 182.748383,118.716995 182.876251,119.191772 
	C182.999603,120.100983 182.995071,120.535431 182.991547,120.978912 
	C182.992554,120.987953 182.968613,120.990532 182.968613,120.990524 
z"/>
<path fill="#CFFAFD" opacity="1.000000" stroke="none" 
	d="
M263.762146,357.193054 
	C264.050476,356.989990 264.235229,356.992310 264.696838,356.993164 
	C264.714630,358.130341 264.455597,359.269012 264.196564,360.407654 
	C263.812073,360.034454 263.427612,359.661285 263.009521,358.927795 
	C263.203430,358.177826 263.431000,357.788116 263.762146,357.193054 
z"/>
<path fill="#28C0F3" opacity="1.000000" stroke="none" 
	d="
M247.991318,367.870941 
	C247.205231,368.261078 246.419144,368.651245 245.284729,369.139435 
	C244.508392,369.176697 244.080353,369.115936 243.328125,369.076630 
	C243.003906,369.098083 242.907715,368.637756 243.260773,368.329834 
	C245.071030,367.686615 246.528244,367.351318 248.007294,367.229584 
	C248.029144,367.443146 247.991318,367.870941 247.991318,367.870941 
z"/>
<path fill="#CCFCFD" opacity="1.000000" stroke="none" 
	d="
M281.235443,107.911255 
	C281.681030,106.930946 282.481293,105.963112 283.610229,104.959854 
	C283.156006,105.924194 282.373047,106.923958 281.235443,107.911255 
z"/>
<path fill="#1E2C6A" opacity="1.000000" stroke="none" 
	d="
M166.582184,133.592072 
	C167.210541,132.495224 167.980087,131.541489 169.006561,130.419342 
	C169.263489,130.250961 169.256561,130.263397 169.180145,130.594238 
	C169.061096,131.602646 169.018463,132.280228 168.722824,133.075439 
	C167.984940,133.465958 167.500046,133.738846 167.015152,134.011734 
	C167.015152,134.011734 166.723358,133.735168 166.582184,133.592072 
z"/>
<path fill="#1E2C6A" opacity="1.000000" stroke="none" 
	d="
M175.687149,123.022354 
	C175.990479,123.421379 175.995071,123.868271 175.999420,124.657913 
	C175.999176,125.000671 175.987259,125.010513 175.678223,125.011688 
	C174.960602,125.055466 174.552032,125.098068 174.143463,125.140671 
	C174.143463,125.140671 174.029099,125.028427 173.971954,124.972260 
	C174.406006,124.300804 174.897202,123.685509 175.687149,123.022354 
z"/>
<path fill="#CCFCFD" opacity="1.000000" stroke="none" 
	d="
M285.167847,103.867691 
	C285.083649,103.628799 285.259521,103.321953 285.707184,102.964706 
	C285.795258,103.209450 285.611572,103.504593 285.167847,103.867691 
z"/>
<path fill="#CCFCFD" opacity="1.000000" stroke="none" 
	d="
M284.183319,104.879707 
	C284.090302,104.648193 284.255371,104.348557 284.677124,103.978287 
	C284.769684,104.208954 284.605530,104.510277 284.183319,104.879707 
z"/>
<path fill="#28C0F3" opacity="1.000000" stroke="none" 
	d="
M125.005112,317.897552 
	C124.074654,316.463470 123.144203,315.029388 122.300865,313.268188 
	C123.927650,310.612640 125.808540,308.437531 126.937599,305.924591 
	C129.467194,300.294525 131.622803,294.496429 134.289398,288.211609 
	C137.437164,281.105530 140.226242,274.554596 143.015320,268.003662 
	C147.647934,257.621521 152.326813,247.259750 156.900925,236.851898 
	C162.126785,224.961105 167.287170,213.041260 172.416214,201.108337 
	C174.029465,197.355072 175.449921,193.518921 176.940582,189.338150 
	C178.095810,188.555405 179.269043,188.155228 180.779175,188.060394 
	C181.112930,188.546341 181.109787,188.726913 181.073929,189.310883 
	C180.932571,194.759857 183.651138,197.942398 187.894287,200.336426 
	C187.891327,200.554520 187.906906,200.990479 187.659698,201.223495 
	C187.938293,202.639877 188.464111,203.823242 188.994659,205.003296 
	C188.999390,205.000000 188.995560,205.007797 189.099487,205.228882 
	C189.398834,205.725388 189.656128,205.918198 189.982574,206.266144 
	C189.989838,206.503876 190.009476,206.979172 190.042908,207.304932 
	C190.722580,208.081085 191.368820,208.531494 192.007996,208.989273 
	C192.000916,208.996658 192.014496,208.989838 192.113739,209.213562 
	C192.408310,209.716339 192.669632,209.903046 193.010345,209.990005 
	C193.023758,209.982590 193.052414,209.971771 193.033325,210.226089 
	C193.012238,210.650421 193.010254,210.820435 193.002777,211.373444 
	C194.348190,213.492889 195.699097,215.229309 197.287781,217.141174 
	C197.710938,217.867157 197.896332,218.417709 197.838135,219.133392 
	C198.061600,219.869812 198.528671,220.441101 199.007614,221.248642 
	C199.019485,221.484894 199.040939,221.957504 199.066437,222.283691 
	C199.726959,223.077454 200.361984,223.545044 201.234802,224.182678 
	C201.653000,224.897125 201.833389,225.441544 201.770187,226.174683 
	C202.356094,227.238708 203.185608,228.113968 204.278717,229.114502 
	C205.033493,229.826523 205.524658,230.413284 206.011490,231.398834 
	C205.677307,236.225906 208.042450,238.694580 212.245163,240.224945 
	C213.345474,242.282654 214.184448,244.132568 215.019897,246.353027 
	C217.262817,251.158493 219.414963,255.646439 221.849472,259.975586 
	C222.250351,260.688477 223.890305,260.704590 224.964447,261.425232 
	C224.630417,266.474731 220.445526,266.473877 217.516068,268.125916 
	C215.170853,269.448486 213.141327,271.330872 210.655518,272.995148 
	C209.567764,273.362610 208.796188,273.699677 207.637146,274.030762 
	C204.161850,275.677216 201.074005,277.329681 197.741898,278.989014 
	C197.497620,278.995880 197.009201,279.013855 196.688782,279.047485 
	C195.901367,279.707336 195.434357,280.333557 194.592346,280.971924 
	C181.126617,287.465271 168.063751,294.003448 154.934525,300.405579 
	C147.357544,304.100281 139.361633,307.064484 132.209198,311.430389 
	C129.760117,312.925354 124.692589,312.879761 125.005112,317.897552 
z"/>
<path fill="#077ACC" opacity="1.000000" stroke="none" 
	d="
M263.658508,167.005524 
	C264.438049,167.466278 264.786865,167.927582 264.784363,168.939117 
	C264.916901,171.461975 266.021790,173.519424 265.766205,175.391083 
	C265.046387,180.662643 269.357330,182.187561 272.119843,184.903976 
	C272.119843,184.903976 272.119537,184.951035 272.076233,185.320404 
	C272.722992,186.768875 273.413055,187.847961 274.103088,188.927032 
	C274.103088,188.927032 274.092987,188.987137 274.056152,189.425659 
	C274.995789,194.797379 270.844147,201.595856 279.119202,203.895157 
	C279.363922,203.963165 279.646759,204.394119 279.672333,204.677475 
	C280.307709,211.716995 287.299683,217.325668 284.149719,225.338455 
	C283.567352,226.819824 284.904327,229.036469 285.294220,230.926376 
	C285.534851,232.092972 285.659637,233.283478 285.863220,234.641968 
	C283.781921,234.901520 282.318207,235.084045 280.861816,235.233887 
	C280.869110,235.201202 280.899597,235.141586 280.808167,234.807419 
	C277.689819,230.064362 273.665100,227.150955 268.363739,226.037903 
	C265.965393,225.534378 263.475647,225.125351 261.260956,224.145554 
	C250.557129,219.410095 239.920303,214.522018 229.295990,209.609558 
	C227.975739,208.999100 226.606674,208.132172 225.720322,207.018051 
	C223.645874,204.410507 221.498367,204.214264 218.672302,206.116440 
	C217.904114,205.768433 217.426270,205.466888 216.931198,204.791504 
	C215.693710,203.481705 214.578339,202.342392 213.233215,201.648392 
	C209.381836,199.661255 205.492340,197.727539 201.516891,196.005951 
	C194.962799,193.167694 188.329422,190.512466 181.729477,187.780090 
	C183.554077,186.844742 185.280884,185.502899 187.218369,185.036804 
	C206.975327,180.283981 226.768097,175.680130 246.547226,171.019226 
	C252.113525,169.707520 257.667938,168.345215 263.658508,167.005524 
z"/>
<path fill="#0560B1" opacity="1.000000" stroke="none" 
	d="
M265.426178,149.589996 
	C265.445068,150.756088 265.384949,151.500595 265.379211,152.616974 
	C264.945923,156.046829 264.458252,159.104813 263.900879,162.590424 
	C260.598541,165.756851 258.334930,162.549713 256.152496,161.357758 
	C243.988098,154.714066 231.994690,147.755951 219.973724,140.851547 
	C213.683716,137.238785 207.422760,133.571457 201.246536,129.769806 
	C200.505585,129.313736 200.379669,127.858459 199.957336,126.488052 
	C203.787384,123.413857 207.698990,120.811646 211.453232,117.999374 
	C216.685501,114.079956 222.039352,110.271576 226.906403,105.928467 
	C233.457703,100.082420 239.594849,93.772263 245.929993,87.313087 
	C247.499817,86.269745 249.049393,85.574623 250.980194,84.807899 
	C254.235718,91.293755 257.097412,97.856789 259.988495,104.406845 
	C262.173828,109.357887 264.396729,114.292328 266.812439,119.494057 
	C266.463715,129.558777 265.905457,139.363602 265.426178,149.589996 
z"/>
<path fill="#061F80" opacity="1.000000" stroke="none" 
	d="
M166.997696,134.388947 
	C167.500046,133.738846 167.984940,133.465958 169.066833,133.055145 
	C170.426941,131.937012 171.190048,130.956802 171.953156,129.976593 
	C172.425095,129.650131 172.897064,129.323654 174.017487,128.979492 
	C178.518066,128.785538 175.586365,126.340820 175.987259,125.010513 
	C175.987259,125.010513 175.999176,125.000671 176.005005,124.993088 
	C177.808746,125.446121 179.586288,126.035362 181.411346,126.324921 
	C182.768829,126.540283 184.187927,126.367340 186.832596,126.367340 
	C184.970947,124.031059 184.029251,122.849266 183.028076,121.328995 
	C182.968613,120.990532 182.992554,120.987953 183.350983,120.950233 
	C185.447556,120.083168 187.458481,119.565346 188.853317,118.343948 
	C190.517380,116.886780 191.653641,114.826874 193.018555,113.028076 
	C196.355453,111.773514 199.765884,110.676582 202.987167,109.174141 
	C204.036285,108.684822 204.591797,107.137199 205.718475,106.008400 
	C203.737823,112.377808 201.411743,118.812416 199.062592,125.609039 
	C194.980133,138.606277 190.988556,151.263824 186.833099,163.867371 
	C184.723969,170.264435 182.349854,176.575226 180.035767,182.903152 
	C178.847260,186.153122 177.099945,186.731323 173.972046,184.679398 
	C166.511581,179.785263 158.839157,175.212387 151.218079,170.565979 
	C148.725327,169.046204 146.126846,167.699844 143.265900,166.096588 
	C146.583939,161.191635 150.203842,156.457367 153.843979,151.738708 
	C158.213745,146.074265 162.600723,140.423080 166.997696,134.388947 
z"/>
<path fill="#0388C7" opacity="1.000000" stroke="none" 
	d="
M181.604187,187.792084 
	C188.329422,190.512466 194.962799,193.167694 201.516891,196.005951 
	C205.492340,197.727539 209.381836,199.661255 213.233215,201.648392 
	C214.578339,202.342392 215.693710,203.481705 216.563416,204.741058 
	C213.491241,204.015823 210.769623,202.967178 207.863556,201.693237 
	C207.129135,201.305679 206.579193,201.143417 205.820129,200.707825 
	C204.102005,199.921829 202.593002,199.409195 201.070068,198.901459 
	C201.056137,198.906342 201.071075,198.916748 200.926819,198.631287 
	C199.854034,197.911316 198.925522,197.476776 197.796768,196.983276 
	C197.596527,196.924301 197.179550,196.903290 196.949707,196.637100 
	C191.515442,193.883102 186.311050,191.395309 181.106644,188.907501 
	C181.109787,188.726913 181.112930,188.546341 181.172379,188.098755 
	C181.228683,187.831757 181.478882,187.804077 181.604187,187.792084 
z"/>
<path fill="#01E1FC" opacity="1.000000" stroke="none" 
	d="
M125.007050,317.947540 
	C124.692589,312.879761 129.760117,312.925354 132.209198,311.430389 
	C139.361633,307.064484 147.357544,304.100281 154.934525,300.405579 
	C168.063751,294.003448 181.126617,287.465271 194.916992,280.946930 
	C196.080841,280.277771 196.545029,279.645813 197.009201,279.013855 
	C197.009201,279.013855 197.497620,278.995880 198.145935,278.997009 
	C201.871048,277.344391 204.947830,275.690582 208.024612,274.036774 
	C208.796188,273.699677 209.567764,273.362610 211.049896,273.002380 
	C217.504639,270.985840 223.248840,268.992401 229.216125,267.104950 
	C229.717468,267.409790 229.909317,267.671906 230.042923,268.342499 
	C231.380707,270.456024 232.690353,272.224365 234.125488,274.269501 
	C234.838577,275.365479 235.426163,276.184631 236.041412,277.343750 
	C237.044724,279.122162 238.020370,280.560608 239.132477,282.287415 
	C240.181931,283.717590 241.094940,284.859406 242.040100,286.354431 
	C243.713989,289.136810 245.355682,291.565979 247.122894,294.271729 
	C247.836075,295.366333 248.423752,296.184387 249.150574,297.329987 
	C252.318024,302.730042 255.347931,307.801605 258.374207,312.875366 
	C260.642944,316.679108 262.907043,320.485626 265.173248,324.290924 
	C263.157928,329.826691 261.196777,335.382965 259.114258,340.893341 
	C256.149475,348.738159 253.095551,356.549316 250.176453,364.757690 
	C250.273209,365.140564 250.214432,365.214417 249.942657,365.158325 
	C249.487411,365.091003 249.303955,365.079803 248.846817,365.197510 
	C248.388229,365.879272 248.203339,366.432159 248.009888,366.992157 
	C248.001312,366.999298 247.985458,367.016022 247.985458,367.016022 
	C246.528244,367.351318 245.071030,367.686615 243.239090,368.095703 
	C242.864365,368.169525 242.904495,368.148987 242.898804,367.799438 
	C241.464737,367.377747 240.036362,367.305664 238.607986,367.233551 
	C238.607986,367.233551 238.305511,367.351196 237.925583,366.943542 
	C235.923584,366.442627 234.301498,366.349365 232.679428,366.256104 
	C232.292740,366.260101 231.906052,366.264130 231.089661,365.887482 
	C229.385406,365.430054 228.110840,365.353271 226.836288,365.276520 
	C226.430099,365.249420 226.023926,365.222290 225.069366,364.806885 
	C223.214355,364.334503 221.907700,364.250427 220.601059,364.166351 
	C219.633911,364.087708 218.666748,364.009094 217.176987,363.610962 
	C216.310577,363.234039 215.966782,363.176636 215.622986,363.119232 
	C215.622986,363.119232 215.353867,363.220245 215.029312,362.796234 
	C210.703186,361.963776 206.701614,361.555328 202.700043,361.146851 
	C202.700043,361.146851 202.353424,361.227570 201.945312,360.863403 
	C199.999283,360.390625 198.461334,360.282043 196.923401,360.173462 
	C196.923401,360.173462 196.889709,360.209717 196.753464,359.825134 
	C192.649933,359.017914 188.682648,358.595276 184.715363,358.172638 
	C184.715363,358.172638 184.349716,358.245453 183.971832,357.853088 
	C178.905563,356.708405 174.217163,355.956055 169.528778,355.203705 
	C169.528778,355.203705 169.310638,355.377533 169.058899,355.039917 
	C168.175919,354.819061 167.544678,354.935852 166.913422,355.052643 
	C165.186493,354.783325 163.459549,354.513977 161.369461,353.745209 
	C160.572113,352.914825 160.137924,352.583832 159.703751,352.252869 
	C159.703751,352.252869 159.718872,352.301422 159.766785,351.933655 
	C159.128387,351.131439 158.442078,350.697052 157.755753,350.262634 
	C157.755753,350.262634 157.762283,350.193207 157.709442,349.895752 
	C157.280121,349.455292 156.903641,349.312286 156.527161,349.169281 
	C156.527161,349.169281 156.246307,349.148560 156.107452,348.720428 
	C155.306244,347.859680 154.643860,347.427063 153.981491,346.994446 
	C153.635422,346.934662 153.362045,346.760681 153.054916,345.923187 
	C152.331284,344.895416 151.714081,344.416931 151.096878,343.938446 
	C150.830353,343.748993 150.588867,343.531738 150.186432,342.770111 
	C149.261169,341.557587 148.521881,340.861664 147.782578,340.165710 
	C147.782578,340.165710 147.944534,340.188049 147.898865,339.826172 
	C147.092514,339.040680 146.331848,338.617065 145.571182,338.193451 
	C145.571182,338.193451 145.263931,338.107574 145.065125,337.781799 
	C144.683151,337.198853 144.438324,337.032410 144.131821,336.956635 
	C143.764709,336.605347 143.397598,336.254059 142.872131,335.337646 
	C142.337204,334.579498 141.960632,334.386475 141.584045,334.193420 
	C140.758209,333.449860 139.932388,332.706299 138.926666,331.394958 
	C138.214584,330.543091 137.682388,330.258972 137.150208,329.974823 
	C135.806793,328.644501 134.463394,327.314178 132.998428,325.334564 
	C132.194458,324.184021 131.512039,323.682770 130.829620,323.181519 
	C130.829620,323.181519 130.988464,323.004822 130.928741,322.723633 
	C130.134171,322.010284 129.399292,321.578064 128.664429,321.145874 
	C128.664429,321.145874 128.337692,321.068329 128.172424,320.662201 
	C127.600143,319.891846 127.193146,319.527588 126.786148,319.163361 
	C126.786148,319.163361 126.901421,319.094055 126.798706,318.862183 
	C126.166977,318.420807 125.637955,318.211334 125.108948,318.001892 
	C125.108948,318.001862 125.008995,317.997528 125.007050,317.947540 
z"/>
<path fill="#02FEFF" opacity="1.000000" stroke="none" 
	d="
M249.011444,297.002441 
	C248.423752,296.184387 247.836075,295.366333 247.117645,293.890869 
	C246.190659,290.228333 246.207367,286.663513 242.007935,286.001221 
	C241.094940,284.859406 240.181931,283.717590 239.128815,281.920715 
	C237.997055,279.845001 237.005417,278.424408 236.013763,277.003784 
	C235.426163,276.184631 234.838577,275.365479 234.120453,273.900238 
	C232.664871,271.501862 231.339828,269.749573 230.014786,267.997284 
	C229.909317,267.671906 229.717468,267.409790 229.215744,266.773499 
	C228.992081,265.894104 228.991898,265.452179 228.995468,264.618164 
	C229.219025,261.387848 228.091751,259.800751 225.001617,259.630066 
	C222.292435,255.185333 219.640427,251.094223 216.993179,246.600189 
	C216.422104,244.386887 216.149506,242.396790 215.205688,240.804520 
	C213.383865,237.730972 210.453125,235.128601 209.351898,231.868225 
	C208.321838,228.818512 206.835938,227.480667 203.998764,226.749664 
	C203.990173,226.510040 203.970276,226.030685 203.978851,225.607269 
	C204.283417,221.547455 204.017075,218.362839 198.777451,218.979507 
	C198.545639,218.971466 198.081726,218.968246 198.081726,218.968246 
	C197.896332,218.417709 197.710938,217.867157 197.280853,216.815369 
	C197.030197,215.879028 197.024231,215.443970 197.279526,214.792221 
	C198.301041,210.841125 195.861191,210.226608 193.052414,209.971771 
	C193.052414,209.971771 193.023758,209.982590 192.915070,209.763367 
	C192.611359,209.260895 192.347397,209.076126 192.014496,208.989838 
	C192.014496,208.989838 192.000916,208.996658 192.001740,208.666580 
	C191.982803,207.906830 191.963058,207.477173 191.954788,206.681519 
	C190.983292,205.206512 190.000320,204.097504 188.906891,202.724884 
	C188.499924,201.970993 188.203415,201.480743 187.906906,200.990479 
	C187.906906,200.990479 187.891327,200.554520 187.924515,199.946899 
	C187.725739,197.739120 187.493774,196.138947 187.160980,193.843323 
	C191.575821,197.362747 191.575821,197.362747 197.179550,196.903290 
	C197.179550,196.903290 197.596527,196.924301 197.852646,197.327942 
	C199.096207,198.126633 200.083633,198.521683 201.071075,198.916748 
	C201.071075,198.916748 201.056137,198.906342 201.085419,199.253387 
	C202.752899,200.060669 204.391083,200.520905 206.029266,200.981140 
	C206.579193,201.143417 207.129135,201.305679 207.883667,202.061035 
	C212.953537,206.925903 218.466965,209.684998 225.068649,209.932098 
	C225.077866,209.938477 225.082092,209.910995 225.059509,210.300797 
	C225.480820,211.498505 225.747116,212.802658 226.396881,213.035141 
	C231.250107,214.771713 236.179184,216.296249 241.040131,217.922363 
	C240.995773,217.957504 241.083115,217.876099 241.196075,218.215805 
	C243.121033,221.493103 245.731537,222.554916 249.106262,221.873413 
	C249.125443,221.880280 249.150925,221.848465 249.138702,222.235016 
	C249.882812,223.382660 250.512741,224.387741 251.419891,224.857590 
	C253.841537,226.111786 256.325317,227.294128 258.888062,228.217194 
	C263.563049,229.901001 268.312866,231.377029 273.047119,232.940659 
	C273.062775,232.941574 273.090027,232.918564 273.092529,233.283356 
	C275.734436,235.272491 278.243713,237.181717 281.041382,238.459641 
	C286.262482,240.844513 291.651154,242.862534 296.970093,245.033234 
	C296.976501,245.780716 296.982910,246.528183 297.007812,247.649414 
	C297.026306,248.023163 296.989899,248.503815 296.719788,248.744217 
	C296.449646,248.984619 295.991180,249.000580 295.654724,249.049454 
	C294.541595,251.065750 293.764954,253.033173 292.964966,255.319336 
	C292.616089,256.419983 292.290558,257.201874 291.590149,258.038940 
	C290.482056,260.394836 289.748840,262.695587 289.008789,264.999390 
	C289.001984,265.002441 288.995209,265.015808 288.673340,265.052460 
	C287.910980,265.734863 287.470459,266.380646 287.023621,267.354248 
	C287.004456,268.119171 286.991638,268.556244 286.635193,269.049377 
	C285.870026,270.079224 285.448425,271.053009 285.023132,272.355652 
	C285.012177,273.123016 285.004883,273.561523 284.598297,274.007751 
	C278.700836,275.986023 280.803253,279.617615 282.214050,283.098053 
	C281.833710,284.490265 281.453339,285.882446 280.667114,287.674500 
	C277.847595,292.269440 275.370758,296.431091 273.110260,300.707123 
	C272.862335,301.176086 273.856934,302.301941 274.275238,303.123108 
	C273.874207,304.184845 273.473175,305.246613 272.622437,306.653442 
	C271.113831,307.897217 269.743713,308.606415 269.058289,309.732422 
	C267.437012,312.395966 266.141113,315.257599 264.104523,319.226135 
	C260.895569,312.938080 258.723328,307.862427 255.794846,303.268921 
	C254.194550,300.758789 251.314423,299.064606 249.011444,297.002441 
z"/>
<path fill="#0DF8FA" opacity="1.000000" stroke="none" 
	d="
M249.150574,297.329987 
	C251.314423,299.064606 254.194550,300.758789 255.794846,303.268921 
	C258.723328,307.862427 260.895569,312.938080 264.104523,319.226135 
	C266.141113,315.257599 267.437012,312.395966 269.058289,309.732422 
	C269.743713,308.606415 271.113831,307.897217 272.571198,306.994629 
	C270.588226,312.664093 268.206818,318.337463 265.499329,324.150879 
	C262.907043,320.485626 260.642944,316.679108 258.374207,312.875366 
	C255.347931,307.801605 252.318024,302.730042 249.150574,297.329987 
z"/>
<path fill="#0DF8FA" opacity="1.000000" stroke="none" 
	d="
M274.503845,302.874908 
	C273.856934,302.301941 272.862335,301.176086 273.110260,300.707123 
	C275.370758,296.431091 277.847595,292.269440 280.617065,288.034729 
	C278.892731,292.872314 276.812592,297.749512 274.503845,302.874908 
z"/>
<path fill="#20EBF4" opacity="1.000000" stroke="none" 
	d="
M284.997559,274.000000 
	C285.004883,273.561523 285.012177,273.123016 285.364624,272.294189 
	C286.132782,270.933624 286.555817,269.963470 286.978821,268.993286 
	C286.991638,268.556244 287.004456,268.119171 287.339600,267.305542 
	C288.106384,266.291260 288.550781,265.653534 288.995209,265.015808 
	C288.995209,265.015808 289.001984,265.002441 289.281464,265.010254 
	C289.742493,265.031311 289.924072,265.044556 290.105621,265.057770 
	C288.026733,270.053802 285.947845,275.049805 283.489258,279.768982 
	C283.738922,277.661438 284.368225,275.830719 284.997559,274.000000 
z"/>
<path fill="#0DF8FA" opacity="1.000000" stroke="none" 
	d="
M284.598267,274.007751 
	C284.368225,275.830719 283.738922,277.661438 283.146606,279.869751 
	C283.013611,281.054230 282.843597,281.861084 282.443817,282.882996 
	C280.803253,279.617615 278.700836,275.986023 284.598267,274.007751 
z"/>
<path fill="#20EBF4" opacity="1.000000" stroke="none" 
	d="
M295.991180,249.000580 
	C295.991180,249.000580 296.449646,248.984619 296.678131,248.981628 
	C295.541626,252.315475 294.176636,255.652328 292.420654,258.789093 
	C292.008118,258.387268 291.986572,258.185547 291.965027,257.983795 
	C292.290558,257.201874 292.616089,256.419983 293.240112,255.124756 
	C294.356110,252.741150 295.173645,250.870865 295.991180,249.000580 
z"/>
<path fill="#0DF8FA" opacity="1.000000" stroke="none" 
	d="
M291.590149,258.038940 
	C291.986572,258.185547 292.008118,258.387268 292.085602,258.890076 
	C291.560944,260.934845 290.980377,262.678589 290.252716,264.740051 
	C289.924072,265.044556 289.742493,265.031311 289.288269,265.007202 
	C289.748840,262.695587 290.482056,260.394836 291.590149,258.038940 
z"/>
<path fill="#069CF3" opacity="1.000000" stroke="none" 
	d="
M142.661469,268.037292 
	C140.226242,274.554596 137.437164,281.105530 134.334625,287.834015 
	C133.685959,287.302612 132.910797,286.456451 133.082626,285.905670 
	C135.103424,279.428070 135.511185,272.079346 142.661469,268.037292 
z"/>
<path fill="#CCFCFD" opacity="1.000000" stroke="none" 
	d="
M308.704529,81.107819 
	C307.919830,82.362473 306.816315,83.680313 305.335205,84.974747 
	C306.100342,83.691238 307.243011,82.431122 308.704529,81.107819 
z"/>
<path fill="#CCFCFD" opacity="1.000000" stroke="none" 
	d="
M312.779907,77.223351 
	C311.994171,78.468369 310.887360,79.751656 309.413361,81.030045 
	C310.183716,79.770638 311.321228,78.516121 312.779907,77.223351 
z"/>
<path fill="#CCFCFD" opacity="1.000000" stroke="none" 
	d="
M316.478516,73.719505 
	C315.835724,74.771652 314.881775,75.924240 313.562714,77.093323 
	C314.187469,76.013199 315.177399,74.916573 316.478516,73.719505 
z"/>
<path fill="#CCFCFD" opacity="1.000000" stroke="none" 
	d="
M318.928528,72.807396 
	C318.615540,73.034462 318.217072,73.056061 317.520874,73.066666 
	C317.371582,72.759575 317.519958,72.463486 317.921204,72.106094 
	C318.469116,72.143929 318.692108,72.329643 318.928528,72.807396 
z"/>
<path fill="#CCFCFD" opacity="1.000000" stroke="none" 
	d="
M304.701782,85.017899 
	C304.784454,85.239380 304.609924,85.525345 304.186829,85.884560 
	C304.107056,85.666000 304.275818,85.374191 304.701782,85.017899 
z"/>
<path fill="#03F6FD" opacity="1.000000" stroke="none" 
	d="
M287.919464,218.173340 
	C286.530640,213.850784 285.325348,209.458130 283.707428,205.223083 
	C281.592285,199.686386 279.150818,194.274338 277.918427,188.269058 
	C282.888153,193.626785 288.053741,198.818619 292.772186,204.389175 
	C297.432678,209.891357 301.691284,215.738968 306.008301,221.523071 
	C306.941528,222.773453 307.195282,224.519012 308.079071,225.821320 
	C309.098419,227.323349 310.353485,228.720032 311.724457,229.911270 
	C312.788208,230.835587 315.110535,231.193420 315.290314,232.112747 
	C316.658569,239.107376 322.814270,244.070023 322.269318,252.170120 
	C321.549011,262.875824 322.684540,273.704681 322.972351,284.481964 
	C323.009613,285.878937 322.748749,287.283875 322.626007,288.685120 
	C322.199951,288.849548 321.773926,289.013947 321.347870,289.178375 
	C320.557800,288.063446 319.340698,287.047211 319.055939,285.815491 
	C318.119629,281.765076 317.301178,277.808472 313.728210,275.006256 
	C312.798309,274.276947 312.474792,272.710938 311.995361,271.481445 
	C309.591492,265.316650 307.223419,259.137848 304.852722,252.960144 
	C303.519623,249.486206 302.284149,245.971191 300.816833,242.555389 
	C300.525787,241.877869 299.378387,241.568207 298.250732,241.101471 
	C297.875519,241.114059 297.908203,241.074295 297.935547,240.658401 
	C297.020050,232.871964 295.028290,225.991531 288.988129,221.003372 
	C289.000732,220.998062 288.989746,221.022873 288.982178,220.725067 
	C288.671875,219.949997 288.369141,219.472702 288.012878,218.792908 
	C287.959320,218.590378 287.919464,218.173340 287.919464,218.173340 
z"/>
<path fill="#0388C7" opacity="1.000000" stroke="none" 
	d="
M287.652039,217.938751 
	C287.919464,218.173340 287.959320,218.590378 288.009583,219.092682 
	C288.369781,220.070969 288.679779,220.546921 288.989746,221.022873 
	C288.989746,221.022873 289.000732,220.998062 289.029419,221.366241 
	C292.008118,228.181046 294.958160,234.627670 297.908203,241.074295 
	C297.908203,241.074295 297.875519,241.114059 297.859222,241.136230 
	C297.736053,241.982529 297.629181,242.806686 296.958038,243.651352 
	C291.214020,240.870102 286.034271,238.068329 280.854523,235.266556 
	C282.318207,235.084045 283.781921,234.901520 285.863220,234.641968 
	C285.659637,233.283478 285.534851,232.092972 285.294220,230.926376 
	C284.904327,229.036469 283.567352,226.819824 284.149719,225.338455 
	C287.299683,217.325668 280.307709,211.716995 279.672333,204.677475 
	C279.646759,204.394119 279.363922,203.963165 279.119202,203.895157 
	C270.844147,201.595856 274.995789,194.797379 274.045471,189.397522 
	C277.723663,196.878754 281.371429,204.828613 285.031128,212.772995 
	C285.793091,214.427109 286.598969,216.060989 287.652039,217.938751 
z"/>
<path fill="#11ECFC" opacity="1.000000" stroke="none" 
	d="
M280.861816,235.233887 
	C286.034271,238.068329 291.214020,240.870102 296.704224,243.846512 
	C297.008881,244.189758 297.003021,244.358368 296.983643,244.780121 
	C291.651154,242.862534 286.262482,240.844513 281.041382,238.459641 
	C278.243713,237.181717 275.734436,235.272491 273.462860,233.298874 
	C276.187012,233.680252 278.543304,234.410934 280.899597,235.141602 
	C280.899597,235.141586 280.869110,235.201202 280.861816,235.233887 
z"/>
<path fill="#0388C7" opacity="1.000000" stroke="none" 
	d="
M272.097229,184.527740 
	C269.357330,182.187561 265.046387,180.662643 265.766205,175.391083 
	C266.021790,173.519424 264.916901,171.461975 264.697540,169.252853 
	C265.797699,169.859406 266.633331,170.702438 267.721802,172.058411 
	C268.374420,173.021713 268.774292,173.472076 269.174133,173.922440 
	C269.174133,173.922440 269.150116,173.863983 269.177673,173.846970 
	C270.161682,177.270462 271.118164,180.710983 272.097229,184.527740 
z"/>
<path fill="#0388C7" opacity="1.000000" stroke="none" 
	d="
M274.092712,188.586044 
	C273.413055,187.847961 272.722992,186.768875 272.063019,185.302490 
	C272.756165,186.025146 273.419250,187.135101 274.092712,188.586044 
z"/>
<path fill="#CCFCFD" opacity="1.000000" stroke="none" 
	d="
M325.014099,267.348511 
	C325.347260,267.956512 325.577087,268.942352 325.485138,269.983276 
	C325.079163,269.267670 324.994965,268.496979 325.014099,267.348511 
z"/>
<path fill="#192666" opacity="1.000000" stroke="none" 
	d="
M206.199127,102.941467 
	C206.052963,102.616470 206.216064,102.325539 206.677948,101.976112 
	C206.820648,102.270256 206.664536,102.622894 206.199127,102.941467 
z"/>
<path fill="#192666" opacity="1.000000" stroke="none" 
	d="
M207.196381,101.933571 
	C207.098251,101.668961 207.272415,101.349617 207.720886,100.978897 
	C207.819687,101.244621 207.644180,101.561729 207.196381,101.933571 
z"/>
<path fill="#28C0F3" opacity="1.000000" stroke="none" 
	d="
M169.842346,355.474945 
	C174.217163,355.956055 178.905563,356.708405 183.801010,357.778442 
	C179.390686,357.312836 174.773300,356.529510 169.842346,355.474945 
z"/>
<path fill="#28C0F3" opacity="1.000000" stroke="none" 
	d="
M185.039459,358.419495 
	C188.682648,358.595276 192.649933,359.017914 196.729340,359.830597 
	C193.015488,359.702576 189.189529,359.184448 185.039459,358.419495 
z"/>
<path fill="#28C0F3" opacity="1.000000" stroke="none" 
	d="
M203.021988,361.404907 
	C206.701614,361.555328 210.703186,361.963776 214.901825,362.729889 
	C211.180557,362.612701 207.262253,362.137848 203.021988,361.404907 
z"/>
<path fill="#28C0F3" opacity="1.000000" stroke="none" 
	d="
M238.891647,367.489502 
	C240.036362,367.305664 241.464737,367.377747 242.892548,367.799194 
	C241.653091,368.014191 240.414200,367.879791 238.891647,367.489502 
z"/>
<path fill="#28C0F3" opacity="1.000000" stroke="none" 
	d="
M227.112000,365.513733 
	C228.110840,365.353271 229.385406,365.430054 230.811432,365.799194 
	C229.771179,365.978058 228.579453,365.864471 227.112000,365.513733 
z"/>
<path fill="#28C0F3" opacity="1.000000" stroke="none" 
	d="
M232.984589,366.508514 
	C234.301498,366.349365 235.923584,366.442627 237.782684,366.866669 
	C236.443069,367.051910 234.866409,366.906433 232.984589,366.508514 
z"/>
<path fill="#28C0F3" opacity="1.000000" stroke="none" 
	d="
M197.181717,360.448822 
	C198.461334,360.282043 199.999283,360.390625 201.778198,360.802246 
	C200.492798,360.978210 198.966415,360.851196 197.181717,360.448822 
z"/>
<path fill="#28C0F3" opacity="1.000000" stroke="none" 
	d="
M157.790756,350.568787 
	C158.442078,350.697052 159.128387,351.131439 159.742111,351.927460 
	C159.054916,351.817688 158.440338,351.346313 157.790756,350.568787 
z"/>
<path fill="#28C0F3" opacity="1.000000" stroke="none" 
	d="
M220.895691,364.428101 
	C221.907700,364.250427 223.214355,364.334503 224.778046,364.712433 
	C223.753525,364.900818 222.471924,364.795319 220.895691,364.428101 
z"/>
<path fill="#28C0F3" opacity="1.000000" stroke="none" 
	d="
M154.061615,347.268799 
	C154.643860,347.427063 155.306244,347.859680 156.014618,348.614563 
	C155.881683,348.961517 155.702728,348.986237 155.252777,349.017365 
	C154.701767,348.530243 154.421753,348.036713 154.061615,347.268799 
z"/>
<path fill="#28C0F3" opacity="1.000000" stroke="none" 
	d="
M167.257751,355.178772 
	C167.544678,354.935852 168.175919,354.819061 168.933151,354.979614 
	C168.573441,355.272949 168.087769,355.288940 167.257751,355.178772 
z"/>
<path fill="#28C0F3" opacity="1.000000" stroke="none" 
	d="
M159.742615,352.542908 
	C160.137924,352.583832 160.572113,352.914825 161.051956,353.542236 
	C160.658890,353.503479 160.220184,353.168243 159.742615,352.542908 
z"/>
<path fill="#28C0F3" opacity="1.000000" stroke="none" 
	d="
M215.790527,363.339935 
	C215.966782,363.176636 216.310577,363.234039 216.832382,363.486450 
	C216.659607,363.641205 216.308838,363.600922 215.790527,363.339935 
z"/>
<path fill="#28C0F3" opacity="1.000000" stroke="none" 
	d="
M156.659698,349.438324 
	C156.903641,349.312286 157.280121,349.455292 157.744110,349.899445 
	C157.485184,350.036163 157.138718,349.871765 156.659698,349.438324 
z"/>
<path fill="#28C0F3" opacity="1.000000" stroke="none" 
	d="
M145.674744,338.505249 
	C146.331848,338.617065 147.092514,339.040680 147.818314,339.840088 
	C147.115067,339.749603 146.446686,339.283325 145.674744,338.505249 
z"/>
<path fill="#28C0F3" opacity="1.000000" stroke="none" 
	d="
M147.800491,340.486572 
	C148.521881,340.861664 149.261169,341.557587 150.036377,342.577698 
	C149.320984,342.203674 148.569687,341.505554 147.800491,340.486572 
z"/>
<path fill="#28C0F3" opacity="1.000000" stroke="none" 
	d="
M151.151093,344.230774 
	C151.714081,344.416931 152.331284,344.895416 152.955856,345.695435 
	C152.377243,345.519073 151.791260,345.021088 151.151093,344.230774 
z"/>
<path fill="#28C0F3" opacity="1.000000" stroke="none" 
	d="
M130.906677,323.481323 
	C131.512039,323.682770 132.194458,324.184021 132.843613,325.062378 
	C132.201477,324.886719 131.592606,324.333923 130.906677,323.481323 
z"/>
<path fill="#28C0F3" opacity="1.000000" stroke="none" 
	d="
M128.784973,321.434479 
	C129.399292,321.578064 130.134171,322.010284 130.843750,322.806824 
	C130.180817,322.688477 129.543167,322.205780 128.784973,321.434479 
z"/>
<path fill="#28C0F3" opacity="1.000000" stroke="none" 
	d="
M125.202271,318.280457 
	C125.637955,318.211334 126.166977,318.420807 126.769524,318.922760 
	C126.327240,318.996490 125.811417,318.777740 125.202271,318.280457 
z"/>
<path fill="#28C0F3" opacity="1.000000" stroke="none" 
	d="
M126.793663,319.465332 
	C127.193146,319.527588 127.600143,319.891846 128.048370,320.549042 
	C127.660133,320.483795 127.230659,320.125580 126.793663,319.465332 
z"/>
<path fill="#28C0F3" opacity="1.000000" stroke="none" 
	d="
M137.216919,330.272095 
	C137.682388,330.258972 138.214584,330.543091 138.791702,331.149719 
	C138.318970,331.171295 137.801300,330.870331 137.216919,330.272095 
z"/>
<path fill="#28C0F3" opacity="1.000000" stroke="none" 
	d="
M144.175110,337.198883 
	C144.438324,337.032410 144.683151,337.198853 144.960800,337.661133 
	C144.686447,337.901428 144.407501,337.759705 144.175110,337.198883 
z"/>
<path fill="#28C0F3" opacity="1.000000" stroke="none" 
	d="
M141.719696,334.463257 
	C141.960632,334.386475 142.337204,334.579498 142.767914,335.104248 
	C142.499802,335.201630 142.177582,334.967377 141.719696,334.463257 
z"/>
<path fill="#122770" opacity="1.000000" stroke="none" 
	d="
M192.709534,113.166122 
	C191.653641,114.826874 190.517380,116.886780 188.853317,118.343948 
	C187.458481,119.565346 185.447556,120.083168 183.349976,120.941193 
	C182.995071,120.535431 182.999603,120.100983 183.009705,119.340729 
	C186.143692,117.111336 189.272110,115.207756 192.709534,113.166122 
z"/>
<path fill="#20EBF4" opacity="1.000000" stroke="none" 
	d="
M269.197449,173.595352 
	C268.774292,173.472076 268.374420,173.021713 267.959778,172.243805 
	C268.370239,172.366928 268.795502,172.817596 269.197449,173.595352 
z"/>
<path fill="#74FDFD" opacity="1.000000" stroke="none" 
	d="
M249.120514,365.068634 
	C249.303955,365.079803 249.487411,365.091003 249.929321,365.203583 
	C249.978546,365.796967 249.769363,366.289001 249.157150,366.965973 
	C248.754135,367.150909 248.429291,367.105835 248.619156,366.794373 
	C248.912842,366.011475 249.016678,365.540070 249.120514,365.068634 
z"/>
<path fill="#01E1FC" opacity="1.000000" stroke="none" 
	d="
M248.210968,367.787628 
	C247.991318,367.870941 248.029144,367.443146 248.007294,367.229584 
	C247.985458,367.016022 248.001312,366.999298 248.112793,367.021606 
	C248.224258,367.043915 248.429291,367.105835 248.429291,367.105835 
	C248.429291,367.105835 248.754135,367.150909 248.897430,367.070740 
	C248.877808,367.263123 248.674438,367.501007 248.210968,367.787628 
z"/>
<path fill="#122770" opacity="1.000000" stroke="none" 
	d="
M175.678223,125.011688 
	C175.586365,126.340820 178.518066,128.785538 174.314728,128.944702 
	C173.990295,127.915665 174.017090,126.903694 174.093674,125.516190 
	C174.552032,125.098068 174.960602,125.055466 175.678223,125.011688 
z"/>
<path fill="#122770" opacity="1.000000" stroke="none" 
	d="
M171.614212,129.983505 
	C171.190048,130.956802 170.426941,131.937012 169.319839,132.937500 
	C169.018463,132.280228 169.061096,131.602646 169.188873,130.597931 
	C169.941116,130.177338 170.608200,130.083878 171.614212,129.983505 
z"/>
<path fill="#11ECFC" opacity="1.000000" stroke="none" 
	d="
M196.949707,196.637100 
	C191.575821,197.362747 191.575821,197.362747 187.160980,193.843323 
	C187.493774,196.138947 187.725739,197.739120 187.927475,199.728790 
	C183.651138,197.942398 180.932571,194.759857 181.073929,189.310883 
	C186.311050,191.395309 191.515442,193.883102 196.949707,196.637100 
z"/>
<path fill="#14D3F4" opacity="1.000000" stroke="none" 
	d="
M228.991699,265.010223 
	C228.991898,265.452179 228.992081,265.894104 228.992645,266.667511 
	C223.248840,268.992401 217.504639,270.985840 211.366074,272.972046 
	C213.141327,271.330872 215.170853,269.448486 217.516068,268.125916 
	C220.445526,266.473877 224.630417,266.474731 224.983490,261.407227 
	C224.995697,261.006653 225.034897,260.974060 225.320175,261.121704 
	C226.734207,262.516296 227.862961,263.763245 228.991699,265.010223 
z"/>
<path fill="#11ECFC" opacity="1.000000" stroke="none" 
	d="
M204.007355,226.989273 
	C206.835938,227.480667 208.321838,228.818512 209.351898,231.868225 
	C210.453125,235.128601 213.383865,237.730972 215.205688,240.804520 
	C216.149506,242.396790 216.422104,244.386887 216.738235,246.490723 
	C215.993484,246.516937 215.508438,246.249710 215.023407,245.982483 
	C214.184448,244.132568 213.345474,242.282654 212.216629,239.873764 
	C209.956451,236.543213 207.986130,233.771622 206.015823,231.000046 
	C205.524658,230.413284 205.033493,229.826523 204.274475,228.781387 
	C204.006882,227.878433 204.007126,227.433853 204.007355,226.989273 
z"/>
<path fill="#14D3F4" opacity="1.000000" stroke="none" 
	d="
M215.019897,246.353027 
	C215.508438,246.249710 215.993484,246.516937 216.733459,246.893646 
	C219.640427,251.094223 222.292435,255.185333 224.988251,259.877594 
	C225.032059,260.478729 225.034897,260.974060 225.034897,260.974060 
	C225.034897,260.974060 224.995697,261.006653 224.976654,261.024658 
	C223.890305,260.704590 222.250351,260.688477 221.849472,259.975586 
	C219.414963,255.646439 217.262817,251.158493 215.019897,246.353027 
z"/>
<path fill="#14D3F4" opacity="1.000000" stroke="none" 
	d="
M207.637146,274.030762 
	C204.947830,275.690582 201.871048,277.344391 198.390228,278.990173 
	C201.074005,277.329681 204.161850,275.677216 207.637146,274.030762 
z"/>
<path fill="#11ECFC" opacity="1.000000" stroke="none" 
	d="
M199.009277,218.987549 
	C204.017075,218.362839 204.283417,221.547455 203.653091,225.598755 
	C202.883774,226.004410 202.448776,225.995178 202.013779,225.985947 
	C201.833389,225.441544 201.653000,224.897125 201.197876,223.861328 
	C200.295746,222.899109 199.668350,222.428314 199.040939,221.957504 
	C199.040939,221.957504 199.019485,221.484894 199.010620,220.911102 
	C199.004272,219.887375 199.006775,219.437469 199.009277,218.987549 
z"/>
<path fill="#14D3F4" opacity="1.000000" stroke="none" 
	d="
M206.011490,231.398834 
	C207.986130,233.771622 209.956451,236.543213 211.955292,239.665955 
	C208.042450,238.694580 205.677307,236.225906 206.011490,231.398834 
z"/>
<path fill="#11ECFC" opacity="1.000000" stroke="none" 
	d="
M193.033325,210.226089 
	C195.861191,210.226608 198.301041,210.841125 196.986176,214.652130 
	C195.290466,213.482605 194.149368,212.236511 193.008270,210.990433 
	C193.010254,210.820435 193.012238,210.650421 193.033325,210.226089 
z"/>
<path fill="#14D3F4" opacity="1.000000" stroke="none" 
	d="
M193.002777,211.373444 
	C194.149368,212.236511 195.290466,213.482605 196.724915,214.868805 
	C197.024231,215.443970 197.030197,215.879028 197.043091,216.639923 
	C195.699097,215.229309 194.348190,213.492889 193.002777,211.373444 
z"/>
<path fill="#11ECFC" opacity="1.000000" stroke="none" 
	d="
M189.017349,202.988495 
	C190.000320,204.097504 190.983292,205.206512 191.633270,206.667297 
	C190.869995,207.005768 190.439743,206.992477 190.009476,206.979172 
	C190.009476,206.979172 189.989838,206.503876 189.887665,206.038010 
	C189.591080,205.287598 189.327774,205.099487 188.995560,205.007797 
	C188.995560,205.007797 188.999390,205.000000 188.998474,204.666931 
	C189.004150,203.885422 189.010742,203.436951 189.017349,202.988495 
z"/>
<path fill="#14D3F4" opacity="1.000000" stroke="none" 
	d="
M201.770187,226.174683 
	C202.448776,225.995178 202.883774,226.004410 203.644531,226.022156 
	C203.970276,226.030685 203.990173,226.510040 203.998764,226.749664 
	C204.007126,227.433853 204.006882,227.878433 204.010864,228.656128 
	C203.185608,228.113968 202.356094,227.238708 201.770187,226.174683 
z"/>
<path fill="#14D3F4" opacity="1.000000" stroke="none" 
	d="
M188.906891,202.724884 
	C189.010742,203.436951 189.004150,203.885422 188.993729,204.670242 
	C188.464111,203.823242 187.938293,202.639877 187.659698,201.223495 
	C188.203415,201.480743 188.499924,201.970993 188.906891,202.724884 
z"/>
<path fill="#14D3F4" opacity="1.000000" stroke="none" 
	d="
M196.688782,279.047485 
	C196.545029,279.645813 196.080841,280.277771 195.292023,280.934753 
	C195.434357,280.333557 195.901367,279.707336 196.688782,279.047485 
z"/>
<path fill="#14D3F4" opacity="1.000000" stroke="none" 
	d="
M190.042908,207.304932 
	C190.439743,206.992477 190.869995,207.005768 191.621796,207.033295 
	C191.963058,207.477173 191.982803,207.906830 192.008820,208.659195 
	C191.368820,208.531494 190.722580,208.081085 190.042908,207.304932 
z"/>
<path fill="#14D3F4" opacity="1.000000" stroke="none" 
	d="
M198.777466,218.979507 
	C199.006775,219.437469 199.004272,219.887375 198.998749,220.674835 
	C198.528671,220.441101 198.061600,219.869812 197.838135,219.133392 
	C198.081726,218.968246 198.545639,218.971466 198.777466,218.979507 
z"/>
<path fill="#14D3F4" opacity="1.000000" stroke="none" 
	d="
M199.066437,222.283691 
	C199.668350,222.428314 200.295746,222.899109 200.960083,223.691269 
	C200.361984,223.545044 199.726959,223.077454 199.066437,222.283691 
z"/>
<path fill="#14D3F4" opacity="1.000000" stroke="none" 
	d="
M189.099487,205.228882 
	C189.327774,205.099487 189.591080,205.287598 189.880402,205.800278 
	C189.656128,205.918198 189.398834,205.725388 189.099487,205.228882 
z"/>
<path fill="#14D3F4" opacity="1.000000" stroke="none" 
	d="
M192.113739,209.213562 
	C192.347397,209.076126 192.611359,209.260895 192.901657,209.770782 
	C192.669632,209.903046 192.408310,209.716339 192.113739,209.213562 
z"/>
<path fill="#0388C7" opacity="1.000000" stroke="none" 
	d="
M280.808167,234.807434 
	C278.543304,234.410934 276.187012,233.680252 273.460388,232.934082 
	C273.090027,232.918564 273.062775,232.941574 272.861420,232.652298 
	C264.823700,228.858170 256.987305,225.353317 249.150925,221.848465 
	C249.150925,221.848465 249.125443,221.880280 248.963562,221.561279 
	C246.228821,220.120209 243.655960,218.998154 241.083115,217.876099 
	C241.083115,217.876099 240.995773,217.957504 240.887955,217.615326 
	C235.547455,214.819107 230.314774,212.365051 225.082092,209.910995 
	C225.082092,209.910995 225.077866,209.938477 224.887756,209.652237 
	C222.785980,208.298309 220.874313,207.230621 218.962646,206.162918 
	C221.498367,204.214264 223.645874,204.410507 225.720322,207.018051 
	C226.606674,208.132172 227.975739,208.999100 229.295990,209.609558 
	C239.920303,214.522018 250.557129,219.410095 261.260956,224.145554 
	C263.475647,225.125351 265.965393,225.534378 268.363739,226.037903 
	C273.665100,227.150955 277.689819,230.064362 280.808167,234.807434 
z"/>
<path fill="#11ECFC" opacity="1.000000" stroke="none" 
	d="
M218.672302,206.116440 
	C220.874313,207.230621 222.785980,208.298309 224.878540,209.645844 
	C218.466965,209.684998 212.953537,206.925903 208.068146,202.286331 
	C210.769623,202.967178 213.491241,204.015823 216.580627,205.114899 
	C217.426270,205.466888 217.904114,205.768433 218.672302,206.116440 
z"/>
<path fill="#11ECFC" opacity="1.000000" stroke="none" 
	d="
M205.820129,200.707809 
	C204.391083,200.520905 202.752899,200.060669 201.099365,199.248505 
	C202.593002,199.409195 204.102005,199.921829 205.820129,200.707809 
z"/>
<path fill="#11ECFC" opacity="1.000000" stroke="none" 
	d="
M200.926819,198.631287 
	C200.083633,198.521683 199.096207,198.126633 198.052887,197.386902 
	C198.925522,197.476776 199.854034,197.911316 200.926819,198.631287 
z"/>
<path fill="#0DF8FA" opacity="1.000000" stroke="none" 
	d="
M242.040100,286.354431 
	C246.207367,286.663513 246.190659,290.228333 246.992142,293.614319 
	C245.355682,291.565979 243.713989,289.136810 242.040100,286.354431 
z"/>
<path fill="#0DF8FA" opacity="1.000000" stroke="none" 
	d="
M230.042923,268.342499 
	C231.339828,269.749573 232.664871,271.501862 233.994965,273.623413 
	C232.690353,272.224365 231.380707,270.456024 230.042923,268.342499 
z"/>
<path fill="#0DF8FA" opacity="1.000000" stroke="none" 
	d="
M236.041412,277.343750 
	C237.005417,278.424408 237.997055,279.845001 238.992371,281.632324 
	C238.020370,280.560608 237.044724,279.122162 236.041412,277.343750 
z"/>
<path fill="#28C0F3" opacity="1.000000" stroke="none" 
	d="
M248.619156,366.794373 
	C248.429291,367.105835 248.224258,367.043915 248.121353,367.014465 
	C248.203339,366.432159 248.388229,365.879272 248.846817,365.197510 
	C249.016678,365.540070 248.912842,366.011475 248.619156,366.794373 
z"/>
<path fill="#11ECFC" opacity="1.000000" stroke="none" 
	d="
M249.138702,222.235016 
	C256.987305,225.353317 264.823700,228.858170 272.845764,232.651382 
	C268.312866,231.377029 263.563049,229.901001 258.888062,228.217194 
	C256.325317,227.294128 253.841537,226.111786 251.419891,224.857590 
	C250.512741,224.387741 249.882812,223.382660 249.138702,222.235016 
z"/>
<path fill="#11ECFC" opacity="1.000000" stroke="none" 
	d="
M225.059509,210.300797 
	C230.314774,212.365051 235.547455,214.819107 240.932312,217.580200 
	C236.179184,216.296249 231.250107,214.771713 226.396881,213.035141 
	C225.747116,212.802658 225.480820,211.498505 225.059509,210.300797 
z"/>
<path fill="#11ECFC" opacity="1.000000" stroke="none" 
	d="
M241.196075,218.215805 
	C243.655960,218.998154 246.228821,220.120209 248.944366,221.554413 
	C245.731537,222.554916 243.121033,221.493103 241.196075,218.215805 
z"/>
<path fill="#0DF8FA" opacity="1.000000" stroke="none" 
	d="
M295.654724,249.049454 
	C295.173645,250.870865 294.356110,252.741150 293.263458,254.806030 
	C293.764954,253.033173 294.541595,251.065750 295.654724,249.049454 
z"/>
<path fill="#0DF8FA" opacity="1.000000" stroke="none" 
	d="
M225.320175,261.121704 
	C225.034897,260.974060 225.032059,260.478729 225.045410,260.231201 
	C228.091751,259.800751 229.219025,261.387848 228.995483,264.618164 
	C227.862961,263.763245 226.734207,262.516296 225.320175,261.121704 
z"/>
<path fill="#0DF8FA" opacity="1.000000" stroke="none" 
	d="
M286.635223,269.049377 
	C286.555817,269.963470 286.132782,270.933624 285.368286,271.965302 
	C285.448425,271.053009 285.870026,270.079224 286.635223,269.049377 
z"/>
<path fill="#0DF8FA" opacity="1.000000" stroke="none" 
	d="
M288.673340,265.052460 
	C288.550781,265.653534 288.106384,266.291260 287.345947,266.977692 
	C287.470459,266.380646 287.910980,265.734863 288.673340,265.052460 
z"/>
<path fill="#20EBF4" opacity="1.000000" stroke="none" 
	d="
M297.935547,240.658401 
	C294.958160,234.627670 292.008118,228.181046 289.016785,221.371552 
	C295.028290,225.991531 297.020050,232.871964 297.935547,240.658401 
z"/>
<path fill="#20EBF4" opacity="1.000000" stroke="none" 
	d="
M288.982178,220.725067 
	C288.679779,220.546921 288.369781,220.070969 288.063110,219.295212 
	C288.369141,219.472702 288.671875,219.949997 288.982178,220.725067 
z"/>
</svg>