<svg version="1.1" id="Layer_1" xmlns="http://www.w3.org/2000/svg" xmlns:xlink="http://www.w3.org/1999/xlink" x="0px" y="0px"
	 width="100%" viewBox="0 0 200 200" enable-background="new 0 0 200 200" xml:space="preserve">
<path fill="#FDFEFD" opacity="1.000000" stroke="none" 
	d="
M101.000000,201.000000 
	C67.354073,201.000000 34.208145,201.000000 1.031109,201.000000 
	C1.031109,134.395767 1.031109,67.791527 1.031109,1.093641 
	C67.562431,1.093641 134.125046,1.093641 200.843826,1.093641 
	C200.843826,67.666382 200.843826,134.333145 200.843826,201.000000 
	C167.791809,201.000000 134.645905,201.000000 101.000000,201.000000 
M32.004639,155.105270 
	C32.004639,152.147217 32.004639,149.189148 32.004639,146.226013 
	C30.457790,146.226013 29.237339,146.226013 28.196060,146.226013 
	C28.196060,151.974258 28.196060,157.410339 28.196060,163.145050 
	C31.764505,163.145050 35.075306,163.298691 38.357933,163.061844 
	C39.508938,162.978790 40.590714,161.936264 41.704105,161.331879 
	C40.492966,160.691986 39.281822,160.052094 37.373032,159.186630 
	C34.838379,159.387024 32.427254,159.377548 32.004639,155.105270 
M144.074615,146.298538 
	C136.858246,143.286072 130.118484,145.278412 127.983292,151.055298 
	C126.333260,155.519547 128.204971,160.150864 132.577957,162.424194 
	C137.580780,165.024963 143.907700,163.735886 146.962723,159.493378 
	C149.946503,155.349792 149.187927,151.131424 144.074615,146.298538 
M164.296066,155.850006 
	C167.197037,157.943436 167.122635,163.893204 172.837708,162.905518 
	C173.091721,157.597595 173.425446,152.789429 173.462051,147.978989 
	C173.469116,147.049515 172.314102,146.111206 171.695175,145.176971 
	C170.973938,145.923096 169.774933,146.584732 169.625137,147.431900 
	C169.245163,149.580811 169.335587,151.812897 169.181320,155.276093 
	C166.470596,151.756058 164.734085,149.173447 162.634354,146.930939 
	C161.758514,145.995529 159.952164,145.163284 158.862411,145.439987 
	C157.994934,145.660263 157.095093,147.614655 157.038940,148.837280 
	C156.827103,153.450592 156.953857,158.079437 156.953857,162.860870 
	C158.622131,162.860870 160.001877,162.860870 161.893524,162.860870 
	C161.893524,159.683121 161.893524,156.835678 161.893524,153.015381 
	C163.041412,154.281113 163.448563,154.730057 164.296066,155.850006 
M118.965134,147.640717 
	C115.839218,146.710770 112.759506,145.280914 109.574852,144.986588 
	C106.152138,144.670273 103.307327,146.481445 103.080513,150.338730 
	C102.850922,154.243088 105.997925,155.084091 108.965553,155.857117 
	C111.020538,156.392426 113.082314,156.901672 115.343445,157.473755 
	C112.016960,163.425980 105.748077,155.692825 102.141464,162.267044 
	C106.101265,162.870026 109.283264,163.777420 112.449089,163.724182 
	C115.999458,163.664459 119.675346,162.664932 119.932945,158.114166 
	C120.172440,153.883377 116.728302,153.298828 113.617813,152.495041 
	C111.650475,151.986633 109.737686,151.267136 107.800430,150.642319 
	C107.952194,150.009018 108.103966,149.375717 108.255737,148.742416 
	C110.588676,148.871948 112.922104,149.101395 115.254356,149.090073 
	C116.473450,149.084152 117.690483,148.655060 118.965134,147.640717 
M68.025078,147.341873 
	C65.716148,152.424484 63.407215,157.507080 60.618446,163.645935 
	C69.647491,162.422729 67.520103,153.843643 71.639046,150.342697 
	C79.162277,163.137711 79.162277,163.137711 82.282104,162.395508 
	C80.068687,157.519623 77.974953,152.656158 75.663948,147.898224 
	C73.903107,144.272995 71.428543,143.373932 68.025078,147.341873 
M163.866791,101.167839 
	C165.654587,100.935303 167.887894,101.281731 169.123154,100.331169 
	C170.868286,98.988274 171.875717,96.686707 173.198486,94.794945 
	C171.254776,93.540359 169.444901,91.880798 167.318787,91.178215 
	C165.974731,90.734085 163.820190,91.273102 162.638245,92.171989 
	C161.086380,93.352203 159.193634,95.330650 159.210739,96.947151 
	C159.225372,98.329308 161.726562,99.685135 163.866791,101.167839 
M142.054825,105.832497 
	C144.162155,105.565193 146.736725,105.947525 148.252289,104.857468 
	C149.945892,103.639381 150.678696,101.085449 151.829651,99.112885 
	C149.792786,97.980896 147.496231,95.626152 145.777283,95.991188 
	C142.888824,96.604599 140.367645,98.947624 137.691956,100.562973 
	C138.891983,102.256821 140.092026,103.950668 142.054825,105.832497 
M82.992302,122.620277 
	C86.785255,119.226807 87.335251,115.814346 83.965561,114.970810 
	C80.820465,114.183487 77.044884,115.131691 73.781250,116.103363 
	C72.864906,116.376190 71.823021,120.006042 72.485168,121.093948 
	C74.477547,124.367424 77.898438,124.447632 81.336220,123.268753 
	C81.650993,123.160812 81.971077,123.068359 82.992302,122.620277 
M131.032028,106.370865 
	C130.900192,102.535820 128.016541,101.347572 125.206070,101.844734 
	C122.367439,102.346893 119.650879,104.104858 117.240547,105.818596 
	C116.900742,106.060204 118.107742,109.913368 119.455002,110.813942 
	C123.040131,113.210434 127.750008,111.432480 131.032028,106.370865 
M106.864021,109.239494 
	C103.163696,107.073006 99.449707,107.392227 96.329590,110.047493 
	C95.128868,111.069321 94.225479,113.554947 94.576042,115.047195 
	C95.251427,117.922035 100.302315,118.956543 104.111618,117.278259 
	C107.410057,115.825058 109.950035,113.871742 106.864021,109.239494 
M62.301899,127.763084 
	C65.122818,124.701073 65.006218,121.535339 60.952309,120.478416 
	C58.251980,119.774391 54.600700,120.485008 52.079216,121.856819 
	C48.397419,123.859894 49.061676,128.315002 53.153645,129.208725 
	C55.791405,129.784836 58.812389,128.606323 62.301899,127.763084 
M151.542404,83.391693 
	C154.770905,86.080162 158.306961,85.504807 161.113968,83.248848 
	C162.225464,82.355560 161.710052,79.437973 161.935410,77.442078 
	C159.216446,77.354012 156.277527,76.615768 153.864563,77.432129 
	C152.509430,77.890602 152.023666,80.918747 151.542404,83.391693 
M48.926971,161.742310 
	C50.265438,162.354660 51.603905,162.967010 53.681862,163.917679 
	C53.681862,157.882858 53.813675,153.103088 53.583214,148.340836 
	C53.529892,147.238907 52.238567,146.196884 51.516911,145.127304 
	C50.647392,146.235733 49.114758,147.294861 49.028027,148.461487 
	C48.721634,152.582825 48.910313,156.740997 48.926971,161.742310 
M72.988495,98.219284 
	C71.204491,98.476349 69.134750,98.261292 67.715164,99.120476 
	C66.233322,100.017334 65.377625,101.948753 64.248192,103.427887 
	C65.795250,104.484993 67.539749,106.615318 68.848053,106.374626 
	C71.529099,105.881401 73.976135,104.116180 76.519524,102.874672 
	C75.590263,101.406174 74.661011,99.937675 72.988495,98.219284 
M108.209709,92.489655 
	C110.980568,96.248421 114.540970,97.102623 118.254356,94.524612 
	C119.441849,93.700195 120.799095,91.894852 120.649155,90.720909 
	C120.504898,89.591530 118.648750,88.134476 117.305229,87.808380 
	C113.476135,86.879021 110.138390,87.820892 108.209709,92.489655 
M142.006393,87.493744 
	C141.847794,85.919609 141.952438,83.078369 141.486893,82.981651 
	C138.905243,82.445305 136.086136,82.119911 133.553223,82.668434 
	C132.258453,82.948807 130.949875,85.082367 130.525009,86.620674 
	C130.325043,87.344666 132.222870,89.537903 133.122330,89.510277 
	C135.918716,89.424431 138.692245,88.594406 142.006393,87.493744 
M88.172058,100.162460 
	C91.280594,99.996819 94.461929,100.139557 97.443420,99.435715 
	C98.136894,99.272003 98.150154,96.226830 98.476387,94.507477 
	C95.684692,94.288025 92.776337,93.486855 90.134865,94.016556 
	C87.610886,94.522697 85.864899,96.629684 88.172058,100.162460 
M90.531128,145.983353 
	C90.333649,151.091827 89.997253,156.202866 90.092255,161.305908 
	C90.106094,162.049591 92.179794,162.754913 94.005661,163.933121 
	C94.005661,157.921844 94.159698,153.431580 93.890701,148.966797 
	C93.828255,147.930283 92.323837,146.980637 90.531128,145.983353 
M130.251907,68.023979 
	C128.501633,68.425156 126.595268,68.530746 125.061066,69.341026 
	C124.174759,69.809128 123.255592,72.239166 123.433617,72.375793 
	C124.769402,73.400955 126.511604,74.893112 127.864067,74.667191 
	C129.910126,74.325424 131.743530,72.710503 133.667297,71.636581 
	C132.785446,70.475525 131.903595,69.314468 130.251907,68.023979 
M110.917122,75.861160 
	C107.496117,73.165909 103.052254,73.118774 101.557602,76.032509 
	C101.092354,76.939468 101.528419,79.034889 102.310760,79.721291 
	C104.782516,81.889961 109.038048,80.235489 110.917122,75.861160 
M143.471588,67.198967 
	C145.293091,67.941849 147.282547,69.526466 148.891769,69.205399 
	C150.725983,68.839439 152.221161,66.774315 153.863678,65.447655 
	C151.969574,64.619652 150.012024,63.033005 148.199844,63.184544 
	C146.506943,63.326107 144.968369,65.312798 143.471588,67.198967 
M51.004444,112.534035 
	C56.156494,110.777000 58.319870,107.895569 55.888405,106.273491 
	C53.807411,104.885208 50.429630,104.685181 47.826889,105.132347 
	C46.383343,105.380363 45.352726,108.031830 44.135994,109.599983 
	C46.174229,110.633995 48.212463,111.667999 51.004444,112.534035 
M80.126587,81.753754 
	C80.142921,86.841904 83.905914,85.615059 86.414345,84.910622 
	C87.897682,84.494064 88.843857,82.164711 90.031586,80.695511 
	C87.803421,80.187157 85.591919,79.447731 83.338821,79.285355 
	C82.450363,79.221329 81.469170,80.444206 80.126587,81.753754 
M45.059483,95.914680 
	C47.231621,94.914223 50.674259,94.093391 48.276157,91.009087 
	C47.303471,89.758072 43.741482,90.128593 41.462627,90.467278 
	C40.477005,90.613762 39.757000,92.547440 38.916336,93.669304 
	C40.694065,94.455109 42.471794,95.240913 45.059483,95.914680 
M73.659058,68.362885 
	C77.027199,72.475189 79.728310,70.128456 82.932526,67.568146 
	C79.423271,64.166519 76.565964,64.841187 73.659058,68.362885 
M124.743378,56.746418 
	C121.193855,54.083057 118.612144,55.312496 115.969612,58.785591 
	C119.831329,61.236351 122.694481,61.269688 124.743378,56.746418 
M61.615837,85.909660 
	C59.527855,87.360695 59.510094,88.578491 61.902798,89.776321 
	C66.019012,91.836937 67.577034,88.868668 69.244957,85.218384 
	C66.953308,85.381378 64.661667,85.544373 61.615837,85.909660 
M95.516556,64.769905 
	C98.586746,65.258377 101.699615,65.852478 103.101418,61.882603 
	C98.593300,59.159676 95.840004,60.017109 95.516556,64.769905 
M136.355377,52.660515 
	C137.297928,53.588573 138.307739,55.346111 139.169388,55.276253 
	C141.110504,55.118885 142.978271,54.056690 144.875900,53.362698 
	C144.673798,52.533161 144.471710,51.703629 144.269608,50.874092 
	C141.800262,51.272717 139.330917,51.671345 136.355377,52.660515 
M37.502895,80.088036 
	C39.227436,79.372162 40.951981,78.656288 42.676521,77.940422 
	C42.506443,77.313904 42.336361,76.687393 42.166279,76.060875 
	C40.170883,76.060875 38.134026,75.826828 36.199326,76.169525 
	C35.358612,76.318451 34.727951,77.653236 34.001888,78.449425 
	C34.894859,78.994392 35.787827,79.539368 37.502895,80.088036 
M57.898506,75.069565 
	C59.126629,74.305786 60.354752,73.542015 61.917652,72.570038 
	C56.864281,69.716988 54.758354,70.245270 52.852810,74.720161 
	C54.402145,74.877808 55.782402,75.018257 57.898506,75.069565 
z"/>
<path fill="#153B81" opacity="1.000000" stroke="none" 
	d="
M144.372589,146.522644 
	C149.187927,151.131424 149.946503,155.349792 146.962723,159.493378 
	C143.907700,163.735886 137.580780,165.024963 132.577957,162.424194 
	C128.204971,160.150864 126.333260,155.519547 127.983292,151.055298 
	C130.118484,145.278412 136.858246,143.286072 144.372589,146.522644 
M143.529449,155.934219 
	C144.321747,151.927704 142.741928,149.414429 138.684540,148.872513 
	C135.145615,148.399872 132.780090,150.222931 132.340286,153.680496 
	C131.926254,156.935318 133.895660,159.501755 137.007385,159.571762 
	C139.043076,159.617554 141.123596,157.670502 143.529449,155.934219 
z"/>
<path fill="#133A84" opacity="1.000000" stroke="none" 
	d="
M164.075897,155.514511 
	C163.448563,154.730057 163.041412,154.281113 161.893524,153.015381 
	C161.893524,156.835678 161.893524,159.683121 161.893524,162.860870 
	C160.001877,162.860870 158.622131,162.860870 156.953857,162.860870 
	C156.953857,158.079437 156.827103,153.450592 157.038940,148.837280 
	C157.095093,147.614655 157.994934,145.660263 158.862411,145.439987 
	C159.952164,145.163284 161.758514,145.995529 162.634354,146.930939 
	C164.734085,149.173447 166.470596,151.756058 169.181320,155.276093 
	C169.335587,151.812897 169.245163,149.580811 169.625137,147.431900 
	C169.774933,146.584732 170.973938,145.923096 171.695175,145.176971 
	C172.314102,146.111206 173.469116,147.049515 173.462051,147.978989 
	C173.425446,152.789429 173.091721,157.597595 172.837708,162.905518 
	C167.122635,163.893204 167.197037,157.943436 164.075897,155.514511 
z"/>
<path fill="#193D80" opacity="1.000000" stroke="none" 
	d="
M118.936790,148.028900 
	C117.690483,148.655060 116.473450,149.084152 115.254356,149.090073 
	C112.922104,149.101395 110.588676,148.871948 108.255737,148.742416 
	C108.103966,149.375717 107.952194,150.009018 107.800430,150.642319 
	C109.737686,151.267136 111.650475,151.986633 113.617813,152.495041 
	C116.728302,153.298828 120.172440,153.883377 119.932945,158.114166 
	C119.675346,162.664932 115.999458,163.664459 112.449089,163.724182 
	C109.283264,163.777420 106.101265,162.870026 102.141464,162.267044 
	C105.748077,155.692825 112.016960,163.425980 115.343445,157.473755 
	C113.082314,156.901672 111.020538,156.392426 108.965553,155.857117 
	C105.997925,155.084091 102.850922,154.243088 103.080513,150.338730 
	C103.307327,146.481445 106.152138,144.670273 109.574852,144.986588 
	C112.759506,145.280914 115.839218,146.710770 118.936790,148.028900 
z"/>
<path fill="#14387F" opacity="1.000000" stroke="none" 
	d="
M68.193520,146.993134 
	C71.428543,143.373932 73.903107,144.272995 75.663948,147.898224 
	C77.974953,152.656158 80.068687,157.519623 82.282104,162.395508 
	C79.162277,163.137711 79.162277,163.137711 71.639046,150.342697 
	C67.520103,153.843643 69.647491,162.422729 60.618446,163.645935 
	C63.407215,157.507080 65.716148,152.424484 68.193520,146.993134 
z"/>
<path fill="#B6BF1C" opacity="1.000000" stroke="none" 
	d="
M163.497360,101.110229 
	C161.726562,99.685135 159.225372,98.329308 159.210739,96.947151 
	C159.193634,95.330650 161.086380,93.352203 162.638245,92.171989 
	C163.820190,91.273102 165.974731,90.734085 167.318787,91.178215 
	C169.444901,91.880798 171.254776,93.540359 173.198486,94.794945 
	C171.875717,96.686707 170.868286,98.988274 169.123154,100.331169 
	C167.887894,101.281731 165.654587,100.935303 163.497360,101.110229 
z"/>
<path fill="#B5BD1D" opacity="1.000000" stroke="none" 
	d="
M141.673431,105.738510 
	C140.092026,103.950668 138.891983,102.256821 137.691956,100.562973 
	C140.367645,98.947624 142.888824,96.604599 145.777283,95.991188 
	C147.496231,95.626152 149.792786,97.980896 151.829651,99.112885 
	C150.678696,101.085449 149.945892,103.639381 148.252289,104.857468 
	C146.736725,105.947525 144.162155,105.565193 141.673431,105.738510 
z"/>
<path fill="#163881" opacity="1.000000" stroke="none" 
	d="
M82.640503,122.794495 
	C81.971077,123.068359 81.650993,123.160812 81.336220,123.268753 
	C77.898438,124.447632 74.477547,124.367424 72.485168,121.093948 
	C71.823021,120.006042 72.864906,116.376190 73.781250,116.103363 
	C77.044884,115.131691 80.820465,114.183487 83.965561,114.970810 
	C87.335251,115.814346 86.785255,119.226807 82.640503,122.794495 
z"/>
<path fill="#133682" opacity="1.000000" stroke="none" 
	d="
M130.967529,106.750473 
	C127.750008,111.432480 123.040131,113.210434 119.455002,110.813942 
	C118.107742,109.913368 116.900742,106.060204 117.240547,105.818596 
	C119.650879,104.104858 122.367439,102.346893 125.206070,101.844734 
	C128.016541,101.347572 130.900192,102.535820 130.967529,106.750473 
z"/>
<path fill="#153681" opacity="1.000000" stroke="none" 
	d="
M107.130035,109.508545 
	C109.950035,113.871742 107.410057,115.825058 104.111618,117.278259 
	C100.302315,118.956543 95.251427,117.922035 94.576042,115.047195 
	C94.225479,113.554947 95.128868,111.069321 96.329590,110.047493 
	C99.449707,107.392227 103.163696,107.073006 107.130035,109.508545 
z"/>
<path fill="#163881" opacity="1.000000" stroke="none" 
	d="
M61.981762,127.988632 
	C58.812389,128.606323 55.791405,129.784836 53.153645,129.208725 
	C49.061676,128.315002 48.397419,123.859894 52.079216,121.856819 
	C54.600700,120.485008 58.251980,119.774391 60.952309,120.478416 
	C65.006218,121.535339 65.122818,124.701073 61.981762,127.988632 
z"/>
<path fill="#B7C024" opacity="1.000000" stroke="none" 
	d="
M151.344330,83.090439 
	C152.023666,80.918747 152.509430,77.890602 153.864563,77.432129 
	C156.277527,76.615768 159.216446,77.354012 161.935394,77.442078 
	C161.710052,79.437973 162.225464,82.355560 161.113968,83.248848 
	C158.306961,85.504807 154.770905,86.080162 151.344330,83.090439 
z"/>
<path fill="#1F4388" opacity="1.000000" stroke="none" 
	d="
M48.919128,161.313751 
	C48.910313,156.740997 48.721634,152.582825 49.028027,148.461487 
	C49.114758,147.294861 50.647392,146.235733 51.516914,145.127304 
	C52.238567,146.196884 53.529892,147.238907 53.583214,148.340836 
	C53.813675,153.103088 53.681862,157.882858 53.681862,163.917679 
	C51.603905,162.967010 50.265438,162.354660 48.919128,161.313751 
z"/>
<path fill="#1B3B83" opacity="1.000000" stroke="none" 
	d="
M73.360123,98.344231 
	C74.661011,99.937675 75.590263,101.406174 76.519524,102.874672 
	C73.976135,104.116180 71.529099,105.881401 68.848053,106.374626 
	C67.539749,106.615318 65.795250,104.484993 64.248192,103.427887 
	C65.377625,101.948753 66.233322,100.017334 67.715164,99.120476 
	C69.134750,98.261292 71.204491,98.476349 73.360123,98.344231 
z"/>
<path fill="#1B3B83" opacity="1.000000" stroke="none" 
	d="
M108.244797,92.123909 
	C110.138390,87.820892 113.476135,86.879021 117.305229,87.808380 
	C118.648750,88.134476 120.504898,89.591530 120.649155,90.720909 
	C120.799095,91.894852 119.441849,93.700195 118.254356,94.524612 
	C114.540970,97.102623 110.980568,96.248421 108.244797,92.123909 
z"/>
<path fill="#B6BD21" opacity="1.000000" stroke="none" 
	d="
M141.740509,87.773407 
	C138.692245,88.594406 135.918716,89.424431 133.122330,89.510277 
	C132.222870,89.537903 130.325043,87.344666 130.525009,86.620674 
	C130.949875,85.082367 132.258453,82.948807 133.553223,82.668434 
	C136.086136,82.119911 138.905243,82.445305 141.486893,82.981651 
	C141.952438,83.078369 141.847794,85.919609 141.740509,87.773407 
z"/>
<path fill="#173683" opacity="1.000000" stroke="none" 
	d="
M87.879501,99.919647 
	C85.864899,96.629684 87.610886,94.522697 90.134865,94.016556 
	C92.776337,93.486855 95.684692,94.288025 98.476395,94.507477 
	C98.150154,96.226830 98.136894,99.272003 97.443420,99.435715 
	C94.461929,100.139557 91.280594,99.996819 87.879501,99.919647 
z"/>
<path fill="#0E3074" opacity="1.000000" stroke="none" 
	d="
M38.070679,159.412201 
	C39.281822,160.052094 40.492966,160.691986 41.704102,161.331879 
	C40.590714,161.936264 39.508938,162.978790 38.357933,163.061844 
	C35.075306,163.298691 31.764505,163.145050 28.196060,163.145050 
	C28.196060,157.410339 28.196060,151.974258 28.196060,146.226013 
	C29.237339,146.226013 30.457790,146.226013 32.004639,146.226013 
	C32.004639,149.189148 32.004639,152.147217 31.949806,155.810638 
	C31.300793,156.382736 30.706614,156.249451 29.956881,156.081268 
	C29.117155,158.198730 27.743923,161.105316 31.478258,161.657150 
	C33.446117,161.947952 37.475483,164.566177 38.070679,159.412201 
z"/>
<path fill="#092E76" opacity="1.000000" stroke="none" 
	d="
M91.007027,145.987183 
	C92.323837,146.980637 93.828255,147.930283 93.890701,148.966797 
	C94.159698,153.431580 94.005661,157.921844 94.005661,163.933121 
	C92.179794,162.754913 90.106094,162.049591 90.092255,161.305908 
	C89.997253,156.202866 90.333649,151.091827 91.007027,145.987183 
z"/>
<path fill="#B8C02F" opacity="1.000000" stroke="none" 
	d="
M130.636826,68.088699 
	C131.903595,69.314468 132.785446,70.475525 133.667297,71.636581 
	C131.743530,72.710503 129.910126,74.325424 127.864067,74.667191 
	C126.511604,74.893112 124.769402,73.400955 123.433617,72.375793 
	C123.255592,72.239166 124.174759,69.809128 125.061066,69.341026 
	C126.595268,68.530746 128.501633,68.425156 130.636826,68.088699 
z"/>
<path fill="#B4BD29" opacity="1.000000" stroke="none" 
	d="
M110.986252,76.233833 
	C109.038048,80.235489 104.782516,81.889961 102.310760,79.721291 
	C101.528419,79.034889 101.092354,76.939468 101.557602,76.032509 
	C103.052254,73.118774 107.496117,73.165909 110.986252,76.233833 
z"/>
<path fill="#B4BE26" opacity="1.000000" stroke="none" 
	d="
M143.416733,66.843170 
	C144.968369,65.312798 146.506943,63.326107 148.199844,63.184544 
	C150.012024,63.033005 151.969574,64.619652 153.863678,65.447662 
	C152.221161,66.774315 150.725983,68.839439 148.891769,69.205399 
	C147.282547,69.526466 145.293091,67.941849 143.416733,66.843170 
z"/>
<path fill="#2B4580" opacity="1.000000" stroke="none" 
	d="
M50.627571,112.618019 
	C48.212463,111.667999 46.174229,110.633995 44.135994,109.599983 
	C45.352726,108.031830 46.383343,105.380363 47.826889,105.132347 
	C50.429630,104.685181 53.807411,104.885208 55.888405,106.273491 
	C58.319870,107.895569 56.156494,110.777000 50.627571,112.618019 
M53.856281,107.395325 
	C51.583313,107.428406 49.310341,107.461494 47.037373,107.494576 
	C47.085438,108.484779 47.133503,109.474983 47.181568,110.465179 
	C49.321068,109.848732 51.462105,109.237427 53.595493,108.600510 
	C53.700939,108.569031 53.739788,108.314476 53.856281,107.395325 
z"/>
<path fill="#B4BD23" opacity="1.000000" stroke="none" 
	d="
M80.328392,81.417419 
	C81.469170,80.444206 82.450363,79.221329 83.338821,79.285355 
	C85.591919,79.447731 87.803421,80.187157 90.031586,80.695511 
	C88.843857,82.164711 87.897682,84.494064 86.414345,84.910622 
	C83.905914,85.615059 80.142921,86.841904 80.328392,81.417419 
z"/>
<path fill="#16357A" opacity="1.000000" stroke="none" 
	d="
M44.654503,95.970703 
	C42.471794,95.240913 40.694065,94.455109 38.916336,93.669296 
	C39.757000,92.547440 40.477005,90.613762 41.462627,90.467278 
	C43.741482,90.128593 47.303471,89.758072 48.276157,91.009087 
	C50.674259,94.093391 47.231621,94.914223 44.654503,95.970703 
z"/>
<path fill="#B6BE3A" opacity="1.000000" stroke="none" 
	d="
M73.715858,68.037399 
	C76.565964,64.841187 79.423271,64.166519 82.932526,67.568146 
	C79.728310,70.128456 77.027199,72.475189 73.715858,68.037399 
z"/>
<path fill="#B7C032" opacity="1.000000" stroke="none" 
	d="
M124.847427,57.101364 
	C122.694481,61.269688 119.831329,61.236351 115.969612,58.785591 
	C118.612144,55.312496 121.193855,54.083057 124.847427,57.101364 
z"/>
<path fill="#113385" opacity="1.000000" stroke="none" 
	d="
M61.992928,85.808517 
	C64.661667,85.544373 66.953308,85.381378 69.244957,85.218384 
	C67.577034,88.868668 66.019012,91.836937 61.902798,89.776321 
	C59.510094,88.578491 59.527855,87.360695 61.992928,85.808517 
z"/>
<path fill="#B7C032" opacity="1.000000" stroke="none" 
	d="
M95.254227,64.508446 
	C95.840004,60.017109 98.593300,59.159676 103.101418,61.882603 
	C101.699615,65.852478 98.586746,65.258377 95.254227,64.508446 
z"/>
<path fill="#18418E" opacity="1.000000" stroke="none" 
	d="
M37.721855,159.299408 
	C37.475483,164.566177 33.446117,161.947952 31.478258,161.657150 
	C27.743923,161.105316 29.117155,158.198730 29.956881,156.081268 
	C30.706614,156.249451 31.300793,156.382736 31.941662,156.266663 
	C32.427254,159.377548 34.838379,159.387024 37.721855,159.299408 
z"/>
<path fill="#B4BD29" opacity="1.000000" stroke="none" 
	d="
M136.608475,52.365242 
	C139.330917,51.671345 141.800262,51.272717 144.269608,50.874092 
	C144.471710,51.703629 144.673798,52.533161 144.875900,53.362698 
	C142.978271,54.056690 141.110504,55.118885 139.169388,55.276253 
	C138.307739,55.346111 137.297928,53.588573 136.608475,52.365242 
z"/>
<path fill="#1E3B71" opacity="1.000000" stroke="none" 
	d="
M37.091843,80.086189 
	C35.787827,79.539368 34.894859,78.994392 34.001884,78.449425 
	C34.727951,77.653236 35.358612,76.318451 36.199326,76.169525 
	C38.134026,75.826828 40.170883,76.060875 42.166279,76.060875 
	C42.336361,76.687393 42.506443,77.313904 42.676521,77.940422 
	C40.951981,78.656288 39.227436,79.372162 37.091843,80.086189 
z"/>
<path fill="#193D80" opacity="1.000000" stroke="none" 
	d="
M57.530582,75.114136 
	C55.782402,75.018257 54.402145,74.877808 52.852810,74.720161 
	C54.758354,70.245270 56.864281,69.716988 61.917652,72.570038 
	C60.354752,73.542015 59.126629,74.305786 57.530582,75.114136 
z"/>
<path fill="#ECF3FB" opacity="1.000000" stroke="none" 
	d="
M143.356750,156.275146 
	C141.123596,157.670502 139.043076,159.617554 137.007385,159.571762 
	C133.895660,159.501755 131.926254,156.935318 132.340286,153.680496 
	C132.780090,150.222931 135.145615,148.399872 138.684540,148.872513 
	C142.741928,149.414429 144.321747,151.927704 143.356750,156.275146 
z"/>
<path fill="#062F88" opacity="1.000000" stroke="none" 
	d="
M53.832966,107.779564 
	C53.739788,108.314476 53.700939,108.569031 53.595493,108.600510 
	C51.462105,109.237427 49.321068,109.848732 47.181568,110.465179 
	C47.133503,109.474983 47.085438,108.484779 47.037373,107.494583 
	C49.310341,107.461494 51.583313,107.428406 53.832966,107.779564 
z"/>
</svg>