<svg version="1.1" id="Layer_1" xmlns="http://www.w3.org/2000/svg" xmlns:xlink="http://www.w3.org/1999/xlink" x="0px" y="0px"
	 width="100%" viewBox="0 0 200 200" enable-background="new 0 0 200 200" xml:space="preserve">
<path fill="#FCFEFF" opacity="1.000000" stroke="none" 
	d="
M121.000000,201.000000 
	C81.028839,201.000000 41.057678,201.000000 1.043259,201.000000 
	C1.043259,134.410263 1.043259,67.820488 1.043259,1.115356 
	C67.666565,1.115356 134.333252,1.115356 200.999969,1.120044 
	C201.000000,29.770716 201.000000,58.416698 200.697998,87.474701 
	C199.910675,87.261520 199.425369,86.636330 199.158386,85.880913 
	C199.143600,85.118698 198.910492,84.486710 198.533325,83.514847 
	C198.297867,82.445816 198.206467,81.716652 198.353073,80.743935 
	C196.797012,75.308266 195.002930,70.116158 193.071381,64.636658 
	C192.760406,63.738304 192.586899,63.127346 192.500977,62.213806 
	C192.295471,61.649876 192.002380,61.388531 191.600739,60.990852 
	C191.492188,60.854515 191.465591,60.507000 191.540924,60.203823 
	C191.334488,59.627041 191.052704,59.353439 190.679016,58.964684 
	C190.587112,58.849537 190.562164,58.555946 190.613007,58.196964 
	C189.998886,56.945595 189.333923,56.053211 188.463043,54.948792 
	C187.812790,53.869091 187.368469,53.001423 186.902786,51.881912 
	C186.644196,51.405399 186.406967,51.180737 185.957092,50.685749 
	C185.362686,49.869186 184.962189,49.334988 184.601807,48.774982 
	C157.761063,7.068556 103.463219,-8.022012 59.223118,13.932487 
	C13.533470,36.606335 -7.143575,89.598167 11.257978,136.817856 
	C17.423885,152.640015 27.323923,165.756760 40.181740,177.094254 
	C40.619427,177.525345 40.963867,177.677795 41.484138,177.893036 
	C41.659973,177.955811 41.926899,178.216934 41.989937,178.525696 
	C42.734886,179.204239 43.416798,179.574020 44.308449,180.021362 
	C44.792667,180.241943 44.998745,180.452057 45.232117,181.023804 
	C45.698750,181.454575 46.069683,181.590790 46.685974,181.789627 
	C47.325966,182.154785 47.720596,182.457321 48.222603,183.052124 
	C48.708660,183.464539 49.087337,183.584702 49.776306,183.802505 
	C51.733467,184.910095 53.380333,185.920044 55.170925,187.188019 
	C55.682053,187.543137 56.049450,187.640259 56.577087,187.763031 
	C56.737331,187.788681 56.995171,187.985825 57.152966,188.232117 
	C57.677662,188.565689 58.044563,188.652969 58.572285,188.765320 
	C58.733105,188.790359 58.994507,188.984344 59.152641,189.228363 
	C59.674152,189.564606 60.037533,189.656845 60.564011,189.774689 
	C60.727112,189.800262 60.995186,189.993027 61.154991,190.237549 
	C61.681690,190.565887 62.048588,190.649719 62.705498,190.781036 
	C63.682919,191.171844 64.370323,191.515182 65.228920,192.151138 
	C66.041885,192.552811 66.683655,192.661865 67.504974,192.782013 
	C67.684540,192.793121 68.001251,192.963867 68.169312,193.212250 
	C68.717094,193.525543 69.096809,193.590469 69.628082,193.643066 
	C69.779625,193.630737 70.039001,193.789474 70.223808,194.096771 
	C71.088661,194.483353 71.768707,194.562637 72.715454,194.644257 
	C73.321945,194.747879 73.661720,194.849167 74.162643,195.216812 
	C75.546295,195.682770 76.768791,195.882355 78.393875,196.099152 
	C82.856918,196.863937 86.917381,197.611542 91.187408,198.627228 
	C93.266640,198.925827 95.136322,198.956345 97.462807,198.956726 
	C101.276794,198.941406 104.633972,198.956223 108.214287,199.240387 
	C110.299706,199.112381 112.161980,198.715042 114.389000,198.229706 
	C115.501938,198.102875 116.250137,198.064056 117.234024,198.286255 
	C118.629990,198.664093 119.790253,198.780899 120.964584,199.247925 
	C120.985764,200.065430 120.992882,200.532715 121.000000,201.000000 
z"/>
<path fill="#408ABB" opacity="1.000000" stroke="none" 
	d="
M74.001503,194.950439 
	C73.661720,194.849167 73.321945,194.747879 72.473915,194.413406 
	C71.323448,194.049973 70.681221,193.919724 70.039001,193.789474 
	C70.039001,193.789474 69.779625,193.630737 69.437508,193.426941 
	C68.730675,193.136719 68.365967,193.050293 68.001251,192.963867 
	C68.001251,192.963867 67.684540,192.793121 67.286530,192.547501 
	C66.278259,192.154099 65.667992,192.006302 65.057724,191.858521 
	C64.370323,191.515182 63.682919,191.171844 62.529404,190.558258 
	C61.707256,190.189697 61.351219,190.091354 60.995186,189.993027 
	C60.995186,189.993027 60.727112,189.800262 60.393253,189.547607 
	C59.704433,189.191422 59.349472,189.087875 58.994507,188.984344 
	C58.994507,188.984344 58.733105,188.790359 58.397980,188.540375 
	C57.706963,188.188873 57.351067,188.087341 56.995171,187.985809 
	C56.995171,187.985825 56.737331,187.788681 56.407784,187.535614 
	C55.727890,187.165039 55.377544,187.047516 55.027199,186.929993 
	C53.380333,185.920044 51.733467,184.910095 49.613136,183.566132 
	C48.798187,183.074692 48.456703,182.917282 48.115219,182.759872 
	C47.720596,182.457321 47.325966,182.154785 46.533665,181.547348 
	C45.802799,181.071381 45.469608,180.900314 45.136414,180.729248 
	C44.998745,180.452057 44.792667,180.241943 44.188545,179.754730 
	C43.214901,179.012665 42.570896,178.614807 41.926895,178.216949 
	C41.926899,178.216934 41.659973,177.955811 41.352905,177.647461 
	C40.726723,177.164597 40.407604,176.990097 40.088493,176.815598 
	C27.323923,165.756760 17.423885,152.640015 11.257978,136.817856 
	C-7.143575,89.598167 13.533470,36.606335 59.223118,13.932487 
	C103.463219,-8.022012 157.761063,7.068556 184.601807,48.774982 
	C184.962189,49.334988 185.362686,49.869186 185.964996,50.941856 
	C186.431763,51.690102 186.677963,51.911926 186.924164,52.133751 
	C187.368469,53.001423 187.812790,53.869091 188.502045,55.286674 
	C189.352036,56.743042 189.957092,57.649494 190.562164,58.555946 
	C190.562164,58.555946 190.587112,58.849537 190.707642,59.239021 
	C191.040649,59.921337 191.253113,60.214169 191.465591,60.507000 
	C191.465591,60.507000 191.492188,60.854515 191.636368,61.258648 
	C191.991501,61.947315 192.202454,62.231850 192.413391,62.516388 
	C192.586899,63.127346 192.760406,63.738304 193.044556,65.015686 
	C194.808487,70.783905 196.461777,75.885696 198.115067,80.987488 
	C198.206467,81.716652 198.297867,82.445816 198.385162,83.779556 
	C198.567383,84.926468 198.753708,85.468811 198.940033,86.011147 
	C199.425369,86.636330 199.910675,87.261520 200.697998,87.943359 
	C201.000000,94.021156 201.000000,100.042305 200.655182,106.704102 
	C200.540253,109.229836 200.770126,111.114914 201.000000,113.000000 
	C201.000000,113.444443 201.000000,113.888893 200.697723,114.724747 
	C199.905472,115.740234 199.415512,116.364319 198.712952,117.248245 
	C198.480438,118.383110 198.460510,119.258125 198.328278,120.433990 
	C198.180069,121.160042 198.144165,121.585258 197.838531,122.263832 
	C196.107056,127.702332 194.645294,132.887466 193.058578,138.316437 
	C192.833893,138.910583 192.734161,139.260910 192.407257,139.818924 
	C192.019409,140.607239 191.858719,141.187851 191.802948,141.828156 
	C191.907852,141.887817 191.678970,141.811127 191.439255,141.979431 
	C191.043945,142.699966 190.888351,143.252197 190.854538,143.824036 
	C190.976318,143.843658 190.731384,143.829163 190.489914,143.999786 
	C190.047073,144.719025 189.845688,145.267624 189.441437,146.044556 
	C188.703064,147.366776 188.167587,148.460663 187.361160,149.711151 
	C186.760086,150.595276 186.429947,151.322815 185.907288,152.295486 
	C185.085114,153.606888 184.455475,154.673157 183.589325,155.872070 
	C183.219055,156.330353 183.085327,156.655960 182.747452,157.148361 
	C182.292068,157.773605 182.040817,158.232071 181.548981,158.822174 
	C181.153152,159.275742 180.997879,159.597641 180.601074,160.109344 
	C179.520813,161.449402 178.682083,162.599670 177.593750,163.861542 
	C177.169388,164.283188 176.994629,164.593246 176.556915,165.103592 
	C166.333755,176.363525 154.602875,185.003113 140.750519,191.114197 
	C140.219070,191.349655 139.957565,191.583054 139.514603,191.841125 
	C139.333145,191.865799 139.013565,192.044739 138.730499,192.043396 
	C138.154587,192.266998 137.861740,192.491928 137.410461,192.714966 
	C137.252014,192.713074 136.978836,192.873688 136.690399,192.878784 
	C136.086121,193.089828 135.770264,193.295792 135.197937,193.523285 
	C134.625870,193.677322 134.310257,193.809860 133.705063,193.943405 
	C133.104065,194.159561 132.792664,194.374695 132.221161,194.580231 
	C131.631775,194.675522 131.302505,194.780396 130.709702,194.870590 
	C130.291946,194.940613 130.137711,195.025330 129.700989,195.112183 
	C128.905045,195.329269 128.391586,195.544250 127.639877,195.751907 
	C127.401627,195.744598 126.993568,195.991058 126.614517,196.007935 
	C124.517700,196.439728 122.799942,196.854675 120.723717,197.196838 
	C119.242950,197.424438 118.120644,197.724823 116.998337,198.025223 
	C116.250137,198.064056 115.501938,198.102875 113.997719,198.145477 
	C111.491516,198.423203 109.741333,198.697128 107.991150,198.971054 
	C104.633972,198.956223 101.276794,198.941406 97.162674,198.723969 
	C94.596428,198.467300 92.787140,198.413223 90.977844,198.359131 
	C86.917381,197.611542 82.856918,196.863937 78.144104,195.847366 
	C76.328339,195.369080 75.164917,195.159760 74.001503,194.950439 
M32.522022,45.065327 
	C16.101553,66.168365 9.917783,89.897911 13.874378,116.379456 
	C20.681026,161.936462 66.328339,196.660477 111.831230,190.743362 
	C164.263916,183.925110 198.482300,138.934082 191.023911,86.619171 
	C185.410095,47.242622 148.254578,13.732508 108.533524,11.942010 
	C78.002815,10.565782 52.915642,21.481388 32.522022,45.065327 
z"/>
<path fill="#FDFEFF" opacity="1.000000" stroke="none" 
	d="
M198.925537,116.988403 
	C199.415512,116.364319 199.905472,115.740234 200.697723,115.058075 
	C201.000000,143.590927 201.000000,172.181839 201.000000,201.000000 
	C174.646210,201.000000 148.291763,201.000000 121.468658,201.000000 
	C120.992882,200.532715 120.985764,200.065430 120.985054,198.977509 
	C121.021706,197.994446 121.051941,197.632019 121.082176,197.269623 
	C122.799942,196.854675 124.517700,196.439728 126.712883,196.181335 
	C127.419579,196.144989 127.648849,195.952103 127.878120,195.759216 
	C128.391586,195.544250 128.905045,195.329269 129.812042,195.270599 
	C130.461472,195.246353 130.717346,195.065796 130.973236,194.885254 
	C131.302505,194.780396 131.631775,194.675522 132.526611,194.636963 
	C133.393005,194.449631 133.693817,194.195999 133.994644,193.942383 
	C134.310257,193.809860 134.625870,193.677322 135.504791,193.596039 
	C136.371689,193.389404 136.675262,193.131546 136.978836,192.873688 
	C136.978836,192.873688 137.252014,192.713074 137.702667,192.741501 
	C138.440079,192.528198 138.726822,192.286469 139.013565,192.044739 
	C139.013565,192.044739 139.333145,191.865799 139.786377,191.841232 
	C140.499908,191.581818 140.760193,191.346970 141.020477,191.112122 
	C154.602875,185.003113 166.333755,176.363525 176.833176,165.024536 
	C177.529358,164.413437 177.686340,164.081680 177.843338,163.749939 
	C178.682083,162.599670 179.520813,161.449402 180.876221,160.014740 
	C181.525116,159.383759 181.657333,159.037140 181.789551,158.690536 
	C182.040817,158.232071 182.292068,157.773605 183.004379,157.035675 
	C183.585571,156.417267 183.705704,156.078339 183.825836,155.739410 
	C184.455475,154.673157 185.085114,153.606888 186.247375,152.222870 
	C187.064041,151.121582 187.348068,150.338074 187.632095,149.554550 
	C188.167587,148.460663 188.703064,147.366776 189.765015,145.957153 
	C190.438095,145.037338 190.584732,144.433243 190.731384,143.829163 
	C190.731384,143.829163 190.976318,143.843658 191.163513,143.721558 
	C191.460114,143.003342 191.569534,142.407242 191.678955,141.811127 
	C191.678970,141.811127 191.907852,141.887817 192.132507,141.717285 
	C192.449570,140.901581 192.541992,140.256409 192.634415,139.611237 
	C192.734161,139.260910 192.833893,138.910583 193.396988,138.225830 
	C195.276321,132.597778 196.692291,127.304123 198.108261,122.010475 
	C198.144165,121.585258 198.180069,121.160042 198.608749,120.332069 
	C198.976196,118.949013 198.950867,117.968704 198.925537,116.988403 
z"/>
<path fill="#D1F4FF" opacity="1.000000" stroke="none" 
	d="
M201.000000,112.571533 
	C200.770126,111.114914 200.540253,109.229836 200.655182,107.172379 
	C201.000000,108.714355 201.000000,110.428719 201.000000,112.571533 
z"/>
<path fill="#C3E5F3" opacity="1.000000" stroke="none" 
	d="
M198.353073,80.743935 
	C196.461777,75.885696 194.808487,70.783905 193.182022,65.303070 
	C195.002930,70.116158 196.797012,75.308266 198.353073,80.743935 
z"/>
<path fill="#CBEAF5" opacity="1.000000" stroke="none" 
	d="
M108.214287,199.240387 
	C109.741333,198.697128 111.491516,198.423203 113.632980,198.233490 
	C112.161980,198.715042 110.299706,199.112381 108.214287,199.240387 
z"/>
<path fill="#CBEAF5" opacity="1.000000" stroke="none" 
	d="
M91.187408,198.627228 
	C92.787140,198.413223 94.596428,198.467300 96.705856,198.754120 
	C95.136322,198.956345 93.266640,198.925827 91.187408,198.627228 
z"/>
<path fill="#CBEAF5" opacity="1.000000" stroke="none" 
	d="
M120.723717,197.196823 
	C121.051941,197.632019 121.021706,197.994446 120.970993,198.627274 
	C119.790253,198.780899 118.629990,198.664093 117.234024,198.286255 
	C118.120644,197.724823 119.242950,197.424438 120.723717,197.196823 
z"/>
<path fill="#CBEAF5" opacity="1.000000" stroke="none" 
	d="
M74.162643,195.216812 
	C75.164917,195.159760 76.328339,195.369080 77.741524,195.830170 
	C76.768791,195.882355 75.546295,195.682770 74.162643,195.216812 
z"/>
<path fill="#C3E5F3" opacity="1.000000" stroke="none" 
	d="
M199.158371,85.880913 
	C198.753708,85.468811 198.567383,84.926468 198.529221,84.119423 
	C198.910492,84.486710 199.143600,85.118698 199.158371,85.880913 
z"/>
<path fill="#C3E5F3" opacity="1.000000" stroke="none" 
	d="
M190.613007,58.196968 
	C189.957092,57.649494 189.352036,56.743042 188.707977,55.498711 
	C189.333923,56.053211 189.998886,56.945595 190.613007,58.196968 
z"/>
<path fill="#CBEAF5" opacity="1.000000" stroke="none" 
	d="
M41.989933,178.525711 
	C42.570896,178.614807 43.214901,179.012665 43.978806,179.677155 
	C43.416798,179.574020 42.734886,179.204239 41.989933,178.525711 
z"/>
<path fill="#CBEAF5" opacity="1.000000" stroke="none" 
	d="
M70.223808,194.096771 
	C70.681221,193.919724 71.323448,194.049973 72.207214,194.411072 
	C71.768707,194.562637 71.088661,194.483353 70.223808,194.096771 
z"/>
<path fill="#CBEAF5" opacity="1.000000" stroke="none" 
	d="
M65.228920,192.151138 
	C65.667992,192.006302 66.278259,192.154099 67.106972,192.536407 
	C66.683655,192.661865 66.041885,192.552811 65.228920,192.151138 
z"/>
<path fill="#CBEAF5" opacity="1.000000" stroke="none" 
	d="
M68.169312,193.212250 
	C68.365967,193.050293 68.730675,193.136719 69.285965,193.439270 
	C69.096809,193.590469 68.717094,193.525543 68.169312,193.212250 
z"/>
<path fill="#CBEAF5" opacity="1.000000" stroke="none" 
	d="
M61.154991,190.237549 
	C61.351219,190.091354 61.707256,190.189697 62.239388,190.510788 
	C62.048588,190.649719 61.681690,190.565887 61.154991,190.237549 
z"/>
<path fill="#CBEAF5" opacity="1.000000" stroke="none" 
	d="
M59.152641,189.228348 
	C59.349472,189.087875 59.704433,189.191422 60.230152,189.522034 
	C60.037533,189.656845 59.674152,189.564606 59.152641,189.228348 
z"/>
<path fill="#CBEAF5" opacity="1.000000" stroke="none" 
	d="
M57.152969,188.232101 
	C57.351067,188.087341 57.706963,188.188873 58.237160,188.515335 
	C58.044563,188.652969 57.677662,188.565689 57.152969,188.232101 
z"/>
<path fill="#C3E5F3" opacity="1.000000" stroke="none" 
	d="
M192.500977,62.213802 
	C192.202454,62.231850 191.991501,61.947315 191.744904,61.394981 
	C192.002380,61.388531 192.295471,61.649876 192.500977,62.213802 
z"/>
<path fill="#C3E5F3" opacity="1.000000" stroke="none" 
	d="
M191.540924,60.203823 
	C191.253113,60.214169 191.040649,59.921337 190.799545,59.354172 
	C191.052704,59.353439 191.334488,59.627041 191.540924,60.203823 
z"/>
<path fill="#C3E5F3" opacity="1.000000" stroke="none" 
	d="
M186.902802,51.881905 
	C186.677963,51.911926 186.431763,51.690102 186.177658,51.212173 
	C186.406967,51.180737 186.644196,51.405399 186.902802,51.881905 
z"/>
<path fill="#CBEAF5" opacity="1.000000" stroke="none" 
	d="
M55.170929,187.188004 
	C55.377544,187.047516 55.727890,187.165039 56.247543,187.509979 
	C56.049450,187.640259 55.682053,187.543137 55.170929,187.188004 
z"/>
<path fill="#CBEAF5" opacity="1.000000" stroke="none" 
	d="
M40.181736,177.094254 
	C40.407604,176.990097 40.726723,177.164597 41.177071,177.584671 
	C40.963867,177.677795 40.619427,177.525345 40.181736,177.094254 
z"/>
<path fill="#CBEAF5" opacity="1.000000" stroke="none" 
	d="
M45.232117,181.023804 
	C45.469608,180.900314 45.802799,181.071381 46.288300,181.484726 
	C46.069683,181.590790 45.698750,181.454575 45.232117,181.023804 
z"/>
<path fill="#CBEAF5" opacity="1.000000" stroke="none" 
	d="
M48.222603,183.052124 
	C48.456703,182.917282 48.798187,183.074692 49.302841,183.468475 
	C49.087337,183.584702 48.708660,183.464539 48.222603,183.052124 
z"/>
<path fill="#F4FBFE" opacity="1.000000" stroke="none" 
	d="
M32.755463,44.795528 
	C52.915642,21.481388 78.002815,10.565782 108.533524,11.942010 
	C148.254578,13.732508 185.410095,47.242622 191.023911,86.619171 
	C198.482300,138.934082 164.263916,183.925110 111.831230,190.743362 
	C66.328339,196.660477 20.681026,161.936462 13.874378,116.379456 
	C9.917783,89.897911 16.101553,66.168365 32.755463,44.795528 
M102.596611,166.987183 
	C103.026245,166.989380 103.455887,166.991577 103.962021,167.689362 
	C104.366966,168.453400 104.771912,169.217453 105.569481,170.528824 
	C110.428368,176.824615 113.487564,176.345047 116.914787,169.593552 
	C118.129532,167.200577 121.149895,165.113907 123.792824,164.242035 
	C126.059624,163.494263 127.370605,163.203918 128.082794,160.590897 
	C129.708908,154.624603 134.538773,151.008270 140.398651,152.083450 
	C144.659149,152.865173 148.072540,153.088760 151.483612,149.991074 
	C152.415497,149.144791 154.706665,149.327896 156.226685,149.678116 
	C162.571747,151.140152 166.502975,149.746643 169.848206,144.165771 
	C187.032181,115.497513 187.137787,86.728127 169.528732,58.311699 
	C153.083221,31.772921 119.937630,17.129080 89.875504,22.503553 
	C46.011211,30.345564 17.963741,67.841400 23.136116,112.188583 
	C24.722263,125.787956 29.919374,138.130966 37.730461,148.349564 
	C42.427921,148.349564 46.222019,148.349564 50.773880,148.349564 
	C60.753326,139.123917 68.450340,142.105835 73.535660,158.278275 
	C75.632256,158.453705 77.934143,158.218750 79.899277,158.923203 
	C82.158531,159.733093 84.119781,161.374329 86.060204,163.437347 
	C86.464989,164.989807 86.869774,166.542252 87.592506,168.701828 
	C87.659470,169.151321 87.726433,169.600800 87.405029,170.385452 
	C87.825691,170.948151 88.246353,171.510834 89.099869,172.529144 
	C89.728752,173.077637 90.357628,173.626129 91.148338,174.487000 
	C91.434944,174.426620 91.721542,174.366241 92.660309,174.160202 
	C93.104797,174.145416 93.549278,174.130615 94.227791,174.422668 
	C94.455597,174.219513 94.683403,174.016342 95.271622,173.430389 
	C95.757324,173.239487 96.243034,173.048584 97.290787,172.787857 
	C97.516922,172.501678 97.743057,172.215515 98.237335,171.447205 
	C98.760300,170.933533 99.283264,170.419861 100.196747,169.871185 
	C100.297035,169.790756 100.495224,169.678574 100.481171,169.635239 
	C100.408760,169.411942 100.281921,169.206284 100.214478,168.340851 
	C100.382912,167.941544 100.551346,167.542221 101.129471,167.088303 
	C101.400322,167.025558 101.674599,166.987289 102.596611,166.987183 
z"/>
<path fill="#C1E3F2" opacity="1.000000" stroke="none" 
	d="
M197.838531,122.263832 
	C196.692291,127.304123 195.276321,132.597778 193.521942,137.982025 
	C194.645294,132.887466 196.107056,127.702332 197.838531,122.263832 
z"/>
<path fill="#C1E3F2" opacity="1.000000" stroke="none" 
	d="
M198.712952,117.248245 
	C198.950867,117.968704 198.976196,118.949013 198.721039,120.031235 
	C198.460510,119.258125 198.480438,118.383110 198.712952,117.248245 
z"/>
<path fill="#C1E3F2" opacity="1.000000" stroke="none" 
	d="
M187.361160,149.711151 
	C187.348068,150.338074 187.064041,151.121582 186.439911,151.977722 
	C186.429947,151.322815 186.760086,150.595276 187.361160,149.711151 
z"/>
<path fill="#C1E3F2" opacity="1.000000" stroke="none" 
	d="
M192.407257,139.818924 
	C192.541992,140.256409 192.449570,140.901581 192.027588,141.657623 
	C191.858719,141.187851 192.019409,140.607239 192.407257,139.818924 
z"/>
<path fill="#C1E3F2" opacity="1.000000" stroke="none" 
	d="
M190.489899,143.999786 
	C190.584732,144.433243 190.438095,145.037338 189.967880,145.728821 
	C189.845688,145.267624 190.047073,144.719025 190.489899,143.999786 
z"/>
<path fill="#C1E3F2" opacity="1.000000" stroke="none" 
	d="
M191.439240,141.979431 
	C191.569534,142.407242 191.460114,143.003342 191.041718,143.701935 
	C190.888351,143.252197 191.043945,142.699966 191.439240,141.979431 
z"/>
<path fill="#CBEAF5" opacity="1.000000" stroke="none" 
	d="
M130.709702,194.870575 
	C130.717346,195.065796 130.461472,195.246353 130.094543,195.268478 
	C130.137711,195.025330 130.291946,194.940613 130.709702,194.870575 
z"/>
<path fill="#CBEAF5" opacity="1.000000" stroke="none" 
	d="
M138.730499,192.043396 
	C138.726822,192.286469 138.440079,192.528198 137.861115,192.743408 
	C137.861740,192.491928 138.154587,192.266998 138.730499,192.043396 
z"/>
<path fill="#CBEAF5" opacity="1.000000" stroke="none" 
	d="
M140.750519,191.114197 
	C140.760193,191.346970 140.499908,191.581818 139.967834,191.816559 
	C139.957565,191.583054 140.219070,191.349655 140.750519,191.114197 
z"/>
<path fill="#CBEAF5" opacity="1.000000" stroke="none" 
	d="
M136.690399,192.878784 
	C136.675262,193.131546 136.371689,193.389404 135.761276,193.574524 
	C135.770264,193.295792 136.086121,193.089828 136.690399,192.878784 
z"/>
<path fill="#CBEAF5" opacity="1.000000" stroke="none" 
	d="
M133.705063,193.943390 
	C133.693817,194.195999 133.393005,194.449631 132.786713,194.646545 
	C132.792664,194.374695 133.104065,194.159561 133.705063,193.943390 
z"/>
<path fill="#CBEAF5" opacity="1.000000" stroke="none" 
	d="
M127.639877,195.751907 
	C127.648849,195.952103 127.419579,196.144989 127.091934,196.164474 
	C126.993568,195.991058 127.401627,195.744598 127.639877,195.751907 
z"/>
<path fill="#C1E3F2" opacity="1.000000" stroke="none" 
	d="
M183.589310,155.872070 
	C183.705704,156.078339 183.585571,156.417267 183.208511,156.868896 
	C183.085327,156.655960 183.219055,156.330353 183.589310,155.872070 
z"/>
<path fill="#C1E3F2" opacity="1.000000" stroke="none" 
	d="
M181.548981,158.822174 
	C181.657333,159.037140 181.525116,159.383759 181.117767,159.824951 
	C180.997879,159.597641 181.153152,159.275742 181.548981,158.822174 
z"/>
<path fill="#C1E3F2" opacity="1.000000" stroke="none" 
	d="
M177.593750,163.861542 
	C177.686340,164.081680 177.529358,164.413437 177.096115,164.824234 
	C176.994629,164.593246 177.169388,164.283188 177.593750,163.861542 
z"/>
<path fill="#3484BC" opacity="1.000000" stroke="none" 
	d="
M100.719788,167.142914 
	C100.551346,167.542221 100.382912,167.941544 100.040047,168.870514 
	C99.845825,169.568863 99.826035,169.737534 99.806229,169.906189 
	C99.283264,170.419861 98.760300,170.933533 97.837753,171.752380 
	C97.201691,172.324280 96.965218,172.590988 96.728745,172.857666 
	C96.243034,173.048584 95.757324,173.239487 94.841972,173.636475 
	C94.412323,173.842560 93.993767,174.115829 93.993767,174.115829 
	C93.549278,174.130615 93.104797,174.145416 92.086960,174.136749 
	C91.337914,174.133713 91.162216,174.154160 90.986511,174.174606 
	C90.357628,173.626129 89.728752,173.077637 88.918259,172.004791 
	C88.422226,171.003723 88.107803,170.527008 87.793388,170.050293 
	C87.726433,169.600800 87.659470,169.151321 87.581985,168.064789 
	C87.117798,165.836670 86.664131,164.245560 86.210464,162.654465 
	C84.119781,161.374329 82.158531,159.733093 79.899277,158.923203 
	C77.934143,158.218750 75.632256,158.453705 73.535660,158.278275 
	C68.450340,142.105835 60.753326,139.123917 50.773880,148.349564 
	C46.222019,148.349564 42.427921,148.349564 37.730461,148.349564 
	C29.919374,138.130966 24.722263,125.787956 23.136116,112.188583 
	C17.963741,67.841400 46.011211,30.345564 89.875504,22.503553 
	C119.937630,17.129080 153.083221,31.772921 169.528732,58.311699 
	C187.137787,86.728127 187.032181,115.497513 169.848206,144.165771 
	C166.502975,149.746643 162.571747,151.140152 156.226685,149.678116 
	C154.706665,149.327896 152.415497,149.144791 151.483612,149.991074 
	C148.072540,153.088760 144.659149,152.865173 140.398651,152.083450 
	C134.538773,151.008270 129.708908,154.624603 128.082794,160.590897 
	C127.370605,163.203918 126.059624,163.494263 123.792824,164.242035 
	C121.149895,165.113907 118.129532,167.200577 116.914787,169.593552 
	C113.487564,176.345047 110.428368,176.824615 105.391678,169.864578 
	C105.035248,168.444809 104.856613,167.689301 104.725189,166.476837 
	C104.722084,161.994751 104.671761,157.969574 104.765274,153.515854 
	C105.035690,150.063553 105.162285,147.039810 105.432327,143.915176 
	C105.879326,143.639023 106.182854,143.463745 106.624146,143.556168 
	C107.062302,144.084152 107.362717,144.344467 107.630615,144.729034 
	C107.598091,144.853317 107.759354,145.053299 107.791702,145.404877 
	C108.404381,146.735138 108.984711,147.713806 110.137474,149.657806 
	C110.720474,147.393372 111.012100,146.260651 111.474503,144.896378 
	C111.743607,144.104584 111.841942,143.544373 112.183807,142.734924 
	C112.067276,140.476990 111.707207,138.468292 111.320236,136.118958 
	C107.319672,129.155228 103.056938,127.008522 99.147522,129.661697 
	C91.176277,135.071487 89.850166,141.582596 95.089378,148.544846 
	C96.592873,147.099899 98.121185,145.631088 99.667519,144.523743 
	C99.865257,145.582779 100.044968,146.280365 100.175598,147.423523 
	C100.336311,150.220093 100.546089,152.571091 100.592957,155.364517 
	C100.526611,159.585602 100.623192,163.364258 100.719788,167.142914 
M89.161705,55.959164 
	C89.161705,55.959164 89.289017,56.188385 88.658363,56.387455 
	C88.534317,56.993752 88.410278,57.600048 88.160454,57.962440 
	C88.160454,57.962440 88.303818,58.200726 87.652321,58.384079 
	C87.076469,60.249233 86.500610,62.114384 85.824959,64.752243 
	C85.602257,65.217064 85.379562,65.681877 85.024139,66.327927 
	C85.024139,66.327927 84.921257,66.763466 84.842072,67.371300 
	C84.757225,67.557167 84.672386,67.743034 84.081413,68.045418 
	C84.026917,68.688736 83.972412,69.332054 83.895477,70.653770 
	C83.741776,71.076584 83.588066,71.499390 82.957405,72.075218 
	C82.957985,72.710960 82.958557,73.346710 82.971962,74.789536 
	C82.751343,75.832748 82.530724,76.875969 81.803314,78.155899 
	C81.866310,79.101387 81.929306,80.046883 82.056740,81.852036 
	C82.018631,83.575356 81.980522,85.298683 81.415039,87.522392 
	C79.658981,89.136932 77.902924,90.751472 75.712891,92.850586 
	C65.806465,100.391029 61.545986,111.207191 57.338028,123.637726 
	C66.789970,121.711426 75.131462,120.382568 83.259392,118.242538 
	C90.300537,116.388649 96.559013,115.974792 101.471313,122.464691 
	C101.626709,122.670006 102.086311,122.645073 103.084518,122.903931 
	C107.869179,114.215981 115.462364,116.895599 122.968483,118.715782 
	C127.169395,119.734474 131.441544,120.461098 135.684875,121.302658 
	C139.197403,121.999268 142.714767,122.671440 147.255783,123.553749 
	C142.853165,110.819519 138.379944,99.663025 127.643845,91.594208 
	C126.751144,91.590469 125.858444,91.586731 124.707581,92.208061 
	C124.604050,92.408310 124.500519,92.608566 123.887123,92.808800 
	C123.263237,92.541626 122.639343,92.274452 122.029526,91.187737 
	C122.025871,86.454903 122.022217,81.722069 122.427734,76.727966 
	C122.197235,76.101250 121.966736,75.474525 121.427094,74.147202 
	C121.305748,73.392960 121.184410,72.638725 121.080704,71.375999 
	C121.016907,71.218864 120.953110,71.061729 120.705040,70.315430 
	C120.541168,69.720589 120.377304,69.125755 120.522049,68.067741 
	C120.225441,67.656708 119.928841,67.245682 119.312279,66.264343 
	C119.214958,65.840797 119.117630,65.417252 119.347023,64.794815 
	C119.145119,64.585052 118.943214,64.375298 118.533058,63.867062 
	C118.533058,63.867062 118.428734,63.518387 118.650459,63.017513 
	C118.338837,62.618168 118.027222,62.218826 117.313095,61.191208 
	C115.772812,57.969719 114.232529,54.748230 112.700272,50.876587 
	C112.391075,50.598721 112.081879,50.320854 111.580177,49.861496 
	C111.580177,49.861496 111.584984,49.596966 111.653038,48.961823 
	C111.335976,48.724266 111.018906,48.486710 110.712662,48.287491 
	C110.712662,48.287491 110.673828,48.276569 110.809151,47.598351 
	C110.202957,47.068695 109.596764,46.539043 109.000000,46.000000 
	C109.000000,46.000000 108.990417,46.009438 108.950645,45.367760 
	C108.324265,44.896957 107.697884,44.426155 107.000870,43.992100 
	C107.000870,43.992100 107.050476,43.929779 107.052727,43.207741 
	C106.017563,42.150314 104.982399,41.092888 103.999611,40.001366 
	C103.999611,40.001366 103.964813,40.053299 103.907112,39.373962 
	C102.913940,39.522545 101.920769,39.671127 100.739853,40.473175 
	C99.299835,41.948372 97.859825,43.423565 95.895828,45.065720 
	C95.673248,45.528435 95.450661,45.991150 95.152779,46.764576 
	C95.152779,46.764576 94.919357,46.983044 94.265190,47.089420 
	C93.947937,47.805870 93.630684,48.522320 93.298691,49.092098 
	C93.298691,49.092098 93.290840,49.233212 92.682251,49.421513 
	C92.592720,49.814159 92.503189,50.206806 92.416512,50.861004 
	C92.416512,50.861004 92.223572,51.037609 91.639648,51.318050 
	C91.523010,51.716789 91.406364,52.115528 91.231758,53.000137 
	C90.964378,53.398914 90.696991,53.797691 89.765221,54.358044 
	C89.597977,54.972050 89.430733,55.586056 89.161705,55.959164 
z"/>
<path fill="#EEFAFD" opacity="1.000000" stroke="none" 
	d="
M106.486389,143.288483 
	C106.182854,143.463745 105.879326,143.639023 105.085289,144.142212 
	C104.603668,147.628235 104.612556,150.786316 104.621445,153.944412 
	C104.671761,157.969574 104.722084,161.994751 104.526459,166.481369 
	C104.280518,166.942825 103.885521,166.993790 103.885521,166.993790 
	C103.455887,166.991577 103.026245,166.989380 102.283005,166.527191 
	C101.564896,162.352158 101.160385,158.637115 100.755875,154.922089 
	C100.546089,152.571091 100.336311,150.220093 100.393661,147.204376 
	C100.323692,145.747192 99.986595,144.954742 99.649490,144.162292 
	C98.121185,145.631088 96.592873,147.099899 95.089378,148.544846 
	C89.850166,141.582596 91.176277,135.071487 99.147522,129.661697 
	C103.056938,127.008522 107.319672,129.155228 111.219002,136.558609 
	C111.409874,139.220642 111.675072,141.102402 111.940262,142.984146 
	C111.841942,143.544373 111.743607,144.104584 111.169151,144.935425 
	C109.715141,145.155136 108.737244,145.104218 107.759354,145.053299 
	C107.759354,145.053299 107.598091,144.853317 107.612656,144.381042 
	C107.246948,143.702026 106.866669,143.495255 106.486389,143.288483 
z"/>
<path fill="#C9E9F6" opacity="1.000000" stroke="none" 
	d="
M100.592957,155.364517 
	C101.160385,158.637115 101.564896,162.352158 101.960846,166.520340 
	C101.674599,166.987289 101.400322,167.025558 100.924622,167.115601 
	C100.623192,163.364258 100.526611,159.585602 100.592957,155.364517 
z"/>
<path fill="#C9E9F6" opacity="1.000000" stroke="none" 
	d="
M86.135330,163.045898 
	C86.664131,164.245560 87.117798,165.836670 87.423004,167.761230 
	C86.869774,166.542252 86.464989,164.989807 86.135330,163.045898 
z"/>
<path fill="#C9E9F6" opacity="1.000000" stroke="none" 
	d="
M87.599213,170.217865 
	C88.107803,170.527008 88.422226,171.003723 88.701828,171.776978 
	C88.246353,171.510834 87.825691,170.948151 87.599213,170.217865 
z"/>
<path fill="#C9E9F6" opacity="1.000000" stroke="none" 
	d="
M103.923767,167.341583 
	C103.885521,166.993790 104.280518,166.942825 104.479248,166.938293 
	C104.856613,167.689301 105.035248,168.444809 105.195374,169.590912 
	C104.771912,169.217453 104.366966,168.453400 103.923767,167.341583 
z"/>
<path fill="#C9E9F6" opacity="1.000000" stroke="none" 
	d="
M100.001495,169.888702 
	C99.826035,169.737534 99.845825,169.568863 100.019852,169.197327 
	C100.281921,169.206284 100.408760,169.411942 100.481171,169.635239 
	C100.495224,169.678574 100.297035,169.790756 100.001495,169.888702 
z"/>
<path fill="#C9E9F6" opacity="1.000000" stroke="none" 
	d="
M97.009766,172.822769 
	C96.965218,172.590988 97.201691,172.324280 97.703674,171.993454 
	C97.743057,172.215515 97.516922,172.501678 97.009766,172.822769 
z"/>
<path fill="#C9E9F6" opacity="1.000000" stroke="none" 
	d="
M91.067429,174.330811 
	C91.162216,174.154160 91.337914,174.133713 91.760880,174.209564 
	C91.721542,174.366241 91.434944,174.426620 91.067429,174.330811 
z"/>
<path fill="#C9E9F6" opacity="1.000000" stroke="none" 
	d="
M94.110779,174.269257 
	C93.993767,174.115829 94.412323,173.842560 94.661758,173.827881 
	C94.683403,174.016342 94.455597,174.219513 94.110779,174.269257 
z"/>
<path fill="#F6FCFE" opacity="1.000000" stroke="none" 
	d="
M127.911110,92.144623 
	C138.379944,99.663025 142.853165,110.819519 147.255783,123.553749 
	C142.714767,122.671440 139.197403,121.999268 135.684875,121.302658 
	C131.441544,120.461098 127.169395,119.734474 122.968483,118.715782 
	C115.462364,116.895599 107.869179,114.215981 103.084518,122.903931 
	C102.086311,122.645073 101.626709,122.670006 101.471313,122.464691 
	C96.559013,115.974792 90.300537,116.388649 83.259392,118.242538 
	C75.131462,120.382568 66.789970,121.711426 57.338028,123.637726 
	C61.545986,111.207191 65.806465,100.391029 76.326843,92.531952 
	C79.838142,91.164925 79.534821,93.441803 80.222092,95.093414 
	C81.426208,97.987114 80.534950,102.238144 84.708626,103.363022 
	C83.770256,97.819733 82.856339,92.420868 81.942413,87.022003 
	C81.980522,85.298683 82.018631,83.575356 82.223495,81.159454 
	C82.363541,79.617645 82.336823,78.768410 82.310112,77.919182 
	C82.530724,76.875969 82.751343,75.832748 83.179993,74.187225 
	C83.403465,73.030670 83.418915,72.476440 83.434364,71.922203 
	C83.588066,71.499390 83.741776,71.076584 84.126892,70.121689 
	C84.434708,69.036049 84.511124,68.482475 84.587540,67.928909 
	C84.672386,67.743034 84.757225,67.557167 85.038589,67.026016 
	C85.235100,66.680725 85.368820,66.388397 85.368820,66.388397 
	C85.368820,66.388397 85.156860,66.146690 85.156860,66.146690 
	C85.379562,65.681877 85.602257,65.217064 86.143616,64.143753 
	C87.076126,61.757080 87.689972,59.978901 88.303818,58.200726 
	C88.303818,58.200726 88.160454,57.962440 88.471832,57.918129 
	C88.951805,57.312008 89.120415,56.750195 89.289017,56.188385 
	C89.289017,56.188385 89.161705,55.959164 89.466324,55.914635 
	C89.990494,55.312229 90.210052,54.754345 90.429604,54.196465 
	C90.696991,53.797691 90.964378,53.398914 91.507675,52.576698 
	C91.930244,51.781376 92.076904,51.409492 92.223572,51.037609 
	C92.223572,51.037609 92.416512,50.861004 92.643860,50.562378 
	C93.011093,49.920238 93.150963,49.576725 93.290833,49.233212 
	C93.290840,49.233212 93.298691,49.092098 93.559479,49.029327 
	C94.186630,48.305382 94.552994,47.644215 94.919357,46.983044 
	C94.919357,46.983044 95.152779,46.764576 95.432343,46.496235 
	C95.947884,45.784851 96.183846,45.341805 96.419815,44.898758 
	C97.859825,43.423565 99.299835,41.948372 101.214104,40.176430 
	C102.447174,39.937553 103.205994,39.995426 103.964813,40.053299 
	C103.964813,40.053299 103.999611,40.001366 104.014442,40.344269 
	C105.036339,41.768044 106.043404,42.848911 107.050476,43.929779 
	C107.050476,43.929779 107.000870,43.992100 107.049370,44.299301 
	C107.728722,45.074150 108.359566,45.541794 108.990417,46.009438 
	C108.990417,46.009438 109.000000,46.000000 109.034363,46.303711 
	C109.603767,47.163803 110.138802,47.720184 110.673828,48.276566 
	C110.673828,48.276569 110.712662,48.287491 110.763901,48.543541 
	C111.071754,49.065388 111.328369,49.331177 111.584984,49.596970 
	C111.584984,49.596966 111.580177,49.861496 111.732162,50.251999 
	C112.153511,50.937244 112.422874,51.231995 112.692245,51.526741 
	C114.232529,54.748230 115.772812,57.969719 117.445953,61.749550 
	C117.862122,62.711391 118.145424,63.114891 118.428734,63.518387 
	C118.428734,63.518387 118.533058,63.867062 118.648071,64.242905 
	C118.763084,64.618744 119.020309,64.993706 119.020309,64.993706 
	C119.117630,65.417252 119.214958,65.840797 119.397240,66.783005 
	C119.725945,67.711418 119.969696,68.121170 120.213440,68.530914 
	C120.377304,69.125755 120.541168,69.720589 120.672249,70.724747 
	C120.780663,71.384201 120.921860,71.634338 121.063065,71.884483 
	C121.184410,72.638725 121.305748,73.392960 121.431740,74.763138 
	C121.630447,75.915794 121.824509,76.452515 122.018570,76.989235 
	C122.022217,81.722069 122.025871,86.454903 121.785255,91.885483 
	C120.191910,97.585205 118.842834,102.587173 117.236908,108.541473 
	C122.275757,103.796478 124.285446,98.740738 124.396988,92.808815 
	C124.500519,92.608566 124.604050,92.408310 125.195953,92.008835 
	C126.426582,91.921280 127.168846,92.032951 127.911110,92.144623 
M97.582001,71.891808 
	C101.045876,74.402710 104.797981,74.499756 107.366997,71.219833 
	C108.836975,69.343056 109.829521,65.439301 108.838715,63.701572 
	C107.566132,61.469658 104.127167,59.308437 101.548981,59.219540 
	C95.545044,59.012516 93.364677,65.436684 97.582001,71.891808 
z"/>
<path fill="#76A7C1" opacity="1.000000" stroke="none" 
	d="
M124.142059,92.808807 
	C124.285446,98.740738 122.275757,103.796478 117.236908,108.541473 
	C118.842834,102.587173 120.191910,97.585205 121.778221,92.295258 
	C122.639343,92.274452 123.263237,92.541626 124.142059,92.808807 
z"/>
<path fill="#5D98BA" opacity="1.000000" stroke="none" 
	d="
M81.678726,87.272202 
	C82.856339,92.420868 83.770256,97.819733 84.708626,103.363022 
	C80.534950,102.238144 81.426208,97.987114 80.222092,95.093414 
	C79.534821,93.441803 79.838142,91.164925 76.543839,92.289673 
	C77.902924,90.751472 79.658981,89.136932 81.678726,87.272202 
z"/>
<path fill="#C9E9F6" opacity="1.000000" stroke="none" 
	d="
M112.183807,142.734924 
	C111.675072,141.102402 111.409874,139.220642 111.245911,136.899231 
	C111.707207,138.468292 112.067276,140.476990 112.183807,142.734924 
z"/>
<path fill="#C9E9F6" opacity="1.000000" stroke="none" 
	d="
M107.791702,145.404877 
	C108.737244,145.104218 109.715141,145.155136 110.998383,145.166992 
	C111.012100,146.260651 110.720474,147.393372 110.137474,149.657806 
	C108.984711,147.713806 108.404381,146.735138 107.791702,145.404877 
z"/>
<path fill="#C9E9F6" opacity="1.000000" stroke="none" 
	d="
M104.765274,153.515854 
	C104.612556,150.786316 104.603668,147.628235 104.941833,144.243103 
	C105.162285,147.039810 105.035690,150.063553 104.765274,153.515854 
z"/>
<path fill="#5D98BA" opacity="1.000000" stroke="none" 
	d="
M87.978073,58.292404 
	C87.689972,59.978901 87.076126,61.757080 86.193520,63.757397 
	C86.500610,62.114384 87.076469,60.249233 87.978073,58.292404 
z"/>
<path fill="#5D98BA" opacity="1.000000" stroke="none" 
	d="
M107.051605,43.568764 
	C106.043404,42.848911 105.036339,41.768044 103.988251,40.361317 
	C104.982399,41.092888 106.017563,42.150314 107.051605,43.568764 
z"/>
<path fill="#5D98BA" opacity="1.000000" stroke="none" 
	d="
M82.056717,78.037537 
	C82.336823,78.768410 82.363541,79.617645 82.191284,80.729622 
	C81.929306,80.046883 81.866310,79.101387 82.056717,78.037537 
z"/>
<path fill="#5D98BA" opacity="1.000000" stroke="none" 
	d="
M103.935959,39.713631 
	C103.205994,39.995426 102.447174,39.937553 101.307976,39.849697 
	C101.920769,39.671127 102.913940,39.522545 103.935959,39.713631 
z"/>
<path fill="#5D98BA" opacity="1.000000" stroke="none" 
	d="
M108.970535,45.688599 
	C108.359566,45.541794 107.728722,45.074150 107.084686,44.280930 
	C107.697884,44.426155 108.324265,44.896957 108.970535,45.688599 
z"/>
<path fill="#76A7C1" opacity="1.000000" stroke="none" 
	d="
M122.223152,76.858597 
	C121.824509,76.452515 121.630447,75.915794 121.586319,75.113441 
	C121.966736,75.474525 122.197235,76.101250 122.223152,76.858597 
z"/>
<path fill="#5D98BA" opacity="1.000000" stroke="none" 
	d="
M83.195885,71.998711 
	C83.418915,72.476440 83.403465,73.030670 83.173584,73.783676 
	C82.958557,73.346710 82.957985,72.710960 83.195885,71.998711 
z"/>
<path fill="#5D98BA" opacity="1.000000" stroke="none" 
	d="
M110.741486,47.937458 
	C110.138802,47.720184 109.603767,47.163803 109.029648,46.308407 
	C109.596764,46.539043 110.202957,47.068695 110.741486,47.937458 
z"/>
<path fill="#5D98BA" opacity="1.000000" stroke="none" 
	d="
M84.334473,67.987167 
	C84.511124,68.482475 84.434708,69.036049 84.138107,69.782494 
	C83.972412,69.332054 84.026917,68.688736 84.334473,67.987167 
z"/>
<path fill="#76A7C1" opacity="1.000000" stroke="none" 
	d="
M127.777481,91.869415 
	C127.168846,92.032951 126.426582,91.921280 125.325027,91.696289 
	C125.858444,91.586731 126.751144,91.590469 127.777481,91.869415 
z"/>
<path fill="#5D98BA" opacity="1.000000" stroke="none" 
	d="
M94.592270,47.036232 
	C94.552994,47.644215 94.186630,48.305382 93.566849,49.102661 
	C93.630684,48.522320 93.947937,47.805870 94.592270,47.036232 
z"/>
<path fill="#C9E9F6" opacity="1.000000" stroke="none" 
	d="
M99.667519,144.523743 
	C99.986595,144.954742 100.323692,145.747192 100.442734,146.758804 
	C100.044968,146.280365 99.865257,145.582779 99.667519,144.523743 
z"/>
<path fill="#5D98BA" opacity="1.000000" stroke="none" 
	d="
M96.157822,44.982239 
	C96.183846,45.341805 95.947884,45.784851 95.469994,46.340878 
	C95.450661,45.991150 95.673248,45.528435 96.157822,44.982239 
z"/>
<path fill="#76A7C1" opacity="1.000000" stroke="none" 
	d="
M120.367744,68.299332 
	C119.969696,68.121170 119.725945,67.711418 119.557220,67.068161 
	C119.928841,67.245682 120.225441,67.656708 120.367744,68.299332 
z"/>
<path fill="#5D98BA" opacity="1.000000" stroke="none" 
	d="
M88.973694,56.287918 
	C89.120415,56.750195 88.951805,57.312008 88.534721,58.040081 
	C88.410278,57.600048 88.534317,56.993752 88.973694,56.287918 
z"/>
<path fill="#76A7C1" opacity="1.000000" stroke="none" 
	d="
M118.539597,63.267952 
	C118.145424,63.114891 117.862122,62.711391 117.647209,62.063686 
	C118.027222,62.218826 118.338837,62.618168 118.539597,63.267952 
z"/>
<path fill="#5D98BA" opacity="1.000000" stroke="none" 
	d="
M90.097412,54.277252 
	C90.210052,54.754345 89.990494,55.312229 89.517212,56.035088 
	C89.430733,55.586056 89.597977,54.972050 90.097412,54.277252 
z"/>
<path fill="#5D98BA" opacity="1.000000" stroke="none" 
	d="
M112.696259,51.201668 
	C112.422874,51.231995 112.153511,50.937244 111.828415,50.342743 
	C112.081879,50.320854 112.391075,50.598721 112.696259,51.201668 
z"/>
<path fill="#5D98BA" opacity="1.000000" stroke="none" 
	d="
M85.090500,66.237305 
	C85.156860,66.146690 85.368820,66.388397 85.368820,66.388397 
	C85.368820,66.388397 85.235100,66.680725 85.078178,66.722092 
	C84.921257,66.763466 85.024139,66.327927 85.090500,66.237305 
z"/>
<path fill="#5D98BA" opacity="1.000000" stroke="none" 
	d="
M92.986542,49.327362 
	C93.150963,49.576725 93.011093,49.920238 92.642441,50.431602 
	C92.503189,50.206806 92.592720,49.814159 92.986542,49.327362 
z"/>
<path fill="#5D98BA" opacity="1.000000" stroke="none" 
	d="
M111.619011,49.279396 
	C111.328369,49.331177 111.071754,49.065388 110.758492,48.524372 
	C111.018906,48.486710 111.335976,48.724266 111.619011,49.279396 
z"/>
<path fill="#76A7C1" opacity="1.000000" stroke="none" 
	d="
M121.071884,71.630241 
	C120.921860,71.634338 120.780663,71.384201 120.764389,71.019318 
	C120.953110,71.061729 121.016907,71.218864 121.071884,71.630241 
z"/>
<path fill="#C9E9F6" opacity="1.000000" stroke="none" 
	d="
M106.624146,143.556168 
	C106.866669,143.495255 107.246948,143.702026 107.645180,144.256775 
	C107.362717,144.344467 107.062302,144.084152 106.624146,143.556168 
z"/>
<path fill="#76A7C1" opacity="1.000000" stroke="none" 
	d="
M119.183670,64.894257 
	C119.020309,64.993706 118.763084,64.618744 118.752197,64.392136 
	C118.943214,64.375298 119.145119,64.585052 119.183670,64.894257 
z"/>
<path fill="#5D98BA" opacity="1.000000" stroke="none" 
	d="
M91.931610,51.177830 
	C92.076904,51.409492 91.930244,51.781376 91.536652,52.333763 
	C91.406364,52.115528 91.523010,51.716789 91.931610,51.177830 
z"/>
<path fill="#4089B9" opacity="1.000000" stroke="none" 
	d="
M97.306427,71.624886 
	C93.364677,65.436684 95.545044,59.012516 101.548981,59.219540 
	C104.127167,59.308437 107.566132,61.469658 108.838715,63.701572 
	C109.829521,65.439301 108.836975,69.343056 107.366997,71.219833 
	C104.797981,74.499756 101.045876,74.402710 97.306427,71.624886 
z"/>
</svg>